G75*
%MOIN*%
%OFA0B0*%
%FSLAX25Y25*%
%IPPOS*%
%LPD*%
%AMOC8*
5,1,8,0,0,1.08239X$1,22.5*
%
%ADD10R,0.21260X0.21260*%
%ADD11C,0.00591*%
%ADD12R,0.08661X0.02362*%
%ADD13R,0.04331X0.03937*%
%ADD14R,0.03543X0.02362*%
%ADD15R,0.05118X0.05906*%
%ADD16R,0.05906X0.05118*%
%ADD17R,0.03937X0.04331*%
%ADD18R,0.05512X0.09449*%
%ADD19R,0.04724X0.04724*%
%ADD20C,0.00500*%
%ADD21R,0.05906X0.03150*%
%ADD22R,0.09843X0.04724*%
%ADD23C,0.00000*%
%ADD24R,0.04724X0.05512*%
%ADD25R,0.03937X0.03937*%
%ADD26R,0.01378X0.05512*%
%ADD27R,0.07087X0.07480*%
%ADD28C,0.02953*%
%ADD29C,0.00492*%
%ADD30C,0.02756*%
%ADD31R,0.11811X0.05512*%
%ADD32R,0.05512X0.05512*%
%ADD33R,0.03937X0.05512*%
%ADD34C,0.00709*%
%ADD35R,0.07087X0.06299*%
%ADD36R,0.06299X0.07087*%
%ADD37R,0.09449X0.05512*%
%ADD38C,0.03307*%
%ADD39C,0.00354*%
%ADD40R,0.11811X0.03150*%
%ADD41C,0.01299*%
%ADD42R,0.09449X0.09449*%
%ADD43R,0.15748X0.07087*%
%ADD44C,0.01624*%
%ADD45C,0.00984*%
D10*
X0054606Y0168780D03*
D11*
X0053327Y0181279D02*
X0053327Y0183839D01*
X0053917Y0183839D01*
X0053917Y0181279D01*
X0053327Y0181279D01*
X0053327Y0181869D02*
X0053917Y0181869D01*
X0053917Y0182459D02*
X0053327Y0182459D01*
X0053327Y0183049D02*
X0053917Y0183049D01*
X0053917Y0183639D02*
X0053327Y0183639D01*
X0051359Y0183839D02*
X0051359Y0181279D01*
X0051359Y0183839D02*
X0051949Y0183839D01*
X0051949Y0181279D01*
X0051359Y0181279D01*
X0051359Y0181869D02*
X0051949Y0181869D01*
X0051949Y0182459D02*
X0051359Y0182459D01*
X0051359Y0183049D02*
X0051949Y0183049D01*
X0051949Y0183639D02*
X0051359Y0183639D01*
X0049390Y0183839D02*
X0049390Y0181279D01*
X0049390Y0183839D02*
X0049980Y0183839D01*
X0049980Y0181279D01*
X0049390Y0181279D01*
X0049390Y0181869D02*
X0049980Y0181869D01*
X0049980Y0182459D02*
X0049390Y0182459D01*
X0049390Y0183049D02*
X0049980Y0183049D01*
X0049980Y0183639D02*
X0049390Y0183639D01*
X0047422Y0183839D02*
X0047422Y0181279D01*
X0047422Y0183839D02*
X0048012Y0183839D01*
X0048012Y0181279D01*
X0047422Y0181279D01*
X0047422Y0181869D02*
X0048012Y0181869D01*
X0048012Y0182459D02*
X0047422Y0182459D01*
X0047422Y0183049D02*
X0048012Y0183049D01*
X0048012Y0183639D02*
X0047422Y0183639D01*
X0045453Y0183839D02*
X0045453Y0181279D01*
X0045453Y0183839D02*
X0046043Y0183839D01*
X0046043Y0181279D01*
X0045453Y0181279D01*
X0045453Y0181869D02*
X0046043Y0181869D01*
X0046043Y0182459D02*
X0045453Y0182459D01*
X0045453Y0183049D02*
X0046043Y0183049D01*
X0046043Y0183639D02*
X0045453Y0183639D01*
X0043485Y0183839D02*
X0043485Y0181279D01*
X0043485Y0183839D02*
X0044075Y0183839D01*
X0044075Y0181279D01*
X0043485Y0181279D01*
X0043485Y0181869D02*
X0044075Y0181869D01*
X0044075Y0182459D02*
X0043485Y0182459D01*
X0043485Y0183049D02*
X0044075Y0183049D01*
X0044075Y0183639D02*
X0043485Y0183639D01*
X0042107Y0179311D02*
X0039547Y0179311D01*
X0039547Y0179901D01*
X0042107Y0179901D01*
X0042107Y0179311D01*
X0042107Y0179901D02*
X0039547Y0179901D01*
X0039547Y0177343D02*
X0042107Y0177343D01*
X0039547Y0177343D02*
X0039547Y0177933D01*
X0042107Y0177933D01*
X0042107Y0177343D01*
X0042107Y0177933D02*
X0039547Y0177933D01*
X0039547Y0175374D02*
X0042107Y0175374D01*
X0039547Y0175374D02*
X0039547Y0175964D01*
X0042107Y0175964D01*
X0042107Y0175374D01*
X0042107Y0175964D02*
X0039547Y0175964D01*
X0039547Y0173406D02*
X0042107Y0173406D01*
X0039547Y0173406D02*
X0039547Y0173996D01*
X0042107Y0173996D01*
X0042107Y0173406D01*
X0042107Y0173996D02*
X0039547Y0173996D01*
X0039547Y0171437D02*
X0042107Y0171437D01*
X0039547Y0171437D02*
X0039547Y0172027D01*
X0042107Y0172027D01*
X0042107Y0171437D01*
X0042107Y0172027D02*
X0039547Y0172027D01*
X0039547Y0169469D02*
X0042107Y0169469D01*
X0039547Y0169469D02*
X0039547Y0170059D01*
X0042107Y0170059D01*
X0042107Y0169469D01*
X0042107Y0170059D02*
X0039547Y0170059D01*
X0039547Y0167500D02*
X0042107Y0167500D01*
X0039547Y0167500D02*
X0039547Y0168090D01*
X0042107Y0168090D01*
X0042107Y0167500D01*
X0042107Y0168090D02*
X0039547Y0168090D01*
X0039547Y0165532D02*
X0042107Y0165532D01*
X0039547Y0165532D02*
X0039547Y0166122D01*
X0042107Y0166122D01*
X0042107Y0165532D01*
X0042107Y0166122D02*
X0039547Y0166122D01*
X0039547Y0163563D02*
X0042107Y0163563D01*
X0039547Y0163563D02*
X0039547Y0164153D01*
X0042107Y0164153D01*
X0042107Y0163563D01*
X0042107Y0164153D02*
X0039547Y0164153D01*
X0039547Y0161595D02*
X0042107Y0161595D01*
X0039547Y0161595D02*
X0039547Y0162185D01*
X0042107Y0162185D01*
X0042107Y0161595D01*
X0042107Y0162185D02*
X0039547Y0162185D01*
X0039547Y0159626D02*
X0042107Y0159626D01*
X0039547Y0159626D02*
X0039547Y0160216D01*
X0042107Y0160216D01*
X0042107Y0159626D01*
X0042107Y0160216D02*
X0039547Y0160216D01*
X0039547Y0157658D02*
X0042107Y0157658D01*
X0039547Y0157658D02*
X0039547Y0158248D01*
X0042107Y0158248D01*
X0042107Y0157658D01*
X0042107Y0158248D02*
X0039547Y0158248D01*
X0044075Y0156280D02*
X0044075Y0153720D01*
X0043485Y0153720D01*
X0043485Y0156280D01*
X0044075Y0156280D01*
X0044075Y0154310D02*
X0043485Y0154310D01*
X0043485Y0154900D02*
X0044075Y0154900D01*
X0044075Y0155490D02*
X0043485Y0155490D01*
X0043485Y0156080D02*
X0044075Y0156080D01*
X0046043Y0156280D02*
X0046043Y0153720D01*
X0045453Y0153720D01*
X0045453Y0156280D01*
X0046043Y0156280D01*
X0046043Y0154310D02*
X0045453Y0154310D01*
X0045453Y0154900D02*
X0046043Y0154900D01*
X0046043Y0155490D02*
X0045453Y0155490D01*
X0045453Y0156080D02*
X0046043Y0156080D01*
X0048012Y0156280D02*
X0048012Y0153720D01*
X0047422Y0153720D01*
X0047422Y0156280D01*
X0048012Y0156280D01*
X0048012Y0154310D02*
X0047422Y0154310D01*
X0047422Y0154900D02*
X0048012Y0154900D01*
X0048012Y0155490D02*
X0047422Y0155490D01*
X0047422Y0156080D02*
X0048012Y0156080D01*
X0049980Y0156280D02*
X0049980Y0153720D01*
X0049390Y0153720D01*
X0049390Y0156280D01*
X0049980Y0156280D01*
X0049980Y0154310D02*
X0049390Y0154310D01*
X0049390Y0154900D02*
X0049980Y0154900D01*
X0049980Y0155490D02*
X0049390Y0155490D01*
X0049390Y0156080D02*
X0049980Y0156080D01*
X0051949Y0156280D02*
X0051949Y0153720D01*
X0051359Y0153720D01*
X0051359Y0156280D01*
X0051949Y0156280D01*
X0051949Y0154310D02*
X0051359Y0154310D01*
X0051359Y0154900D02*
X0051949Y0154900D01*
X0051949Y0155490D02*
X0051359Y0155490D01*
X0051359Y0156080D02*
X0051949Y0156080D01*
X0053917Y0156280D02*
X0053917Y0153720D01*
X0053327Y0153720D01*
X0053327Y0156280D01*
X0053917Y0156280D01*
X0053917Y0154310D02*
X0053327Y0154310D01*
X0053327Y0154900D02*
X0053917Y0154900D01*
X0053917Y0155490D02*
X0053327Y0155490D01*
X0053327Y0156080D02*
X0053917Y0156080D01*
X0055886Y0156280D02*
X0055886Y0153720D01*
X0055296Y0153720D01*
X0055296Y0156280D01*
X0055886Y0156280D01*
X0055886Y0154310D02*
X0055296Y0154310D01*
X0055296Y0154900D02*
X0055886Y0154900D01*
X0055886Y0155490D02*
X0055296Y0155490D01*
X0055296Y0156080D02*
X0055886Y0156080D01*
X0057854Y0156280D02*
X0057854Y0153720D01*
X0057264Y0153720D01*
X0057264Y0156280D01*
X0057854Y0156280D01*
X0057854Y0154310D02*
X0057264Y0154310D01*
X0057264Y0154900D02*
X0057854Y0154900D01*
X0057854Y0155490D02*
X0057264Y0155490D01*
X0057264Y0156080D02*
X0057854Y0156080D01*
X0059823Y0156280D02*
X0059823Y0153720D01*
X0059233Y0153720D01*
X0059233Y0156280D01*
X0059823Y0156280D01*
X0059823Y0154310D02*
X0059233Y0154310D01*
X0059233Y0154900D02*
X0059823Y0154900D01*
X0059823Y0155490D02*
X0059233Y0155490D01*
X0059233Y0156080D02*
X0059823Y0156080D01*
X0061791Y0156280D02*
X0061791Y0153720D01*
X0061201Y0153720D01*
X0061201Y0156280D01*
X0061791Y0156280D01*
X0061791Y0154310D02*
X0061201Y0154310D01*
X0061201Y0154900D02*
X0061791Y0154900D01*
X0061791Y0155490D02*
X0061201Y0155490D01*
X0061201Y0156080D02*
X0061791Y0156080D01*
X0063760Y0156280D02*
X0063760Y0153720D01*
X0063170Y0153720D01*
X0063170Y0156280D01*
X0063760Y0156280D01*
X0063760Y0154310D02*
X0063170Y0154310D01*
X0063170Y0154900D02*
X0063760Y0154900D01*
X0063760Y0155490D02*
X0063170Y0155490D01*
X0063170Y0156080D02*
X0063760Y0156080D01*
X0065728Y0156280D02*
X0065728Y0153720D01*
X0065138Y0153720D01*
X0065138Y0156280D01*
X0065728Y0156280D01*
X0065728Y0154310D02*
X0065138Y0154310D01*
X0065138Y0154900D02*
X0065728Y0154900D01*
X0065728Y0155490D02*
X0065138Y0155490D01*
X0065138Y0156080D02*
X0065728Y0156080D01*
X0067106Y0158248D02*
X0069666Y0158248D01*
X0069666Y0157658D01*
X0067106Y0157658D01*
X0067106Y0158248D01*
X0069666Y0158248D01*
X0069666Y0160216D02*
X0067106Y0160216D01*
X0069666Y0160216D02*
X0069666Y0159626D01*
X0067106Y0159626D01*
X0067106Y0160216D01*
X0069666Y0160216D01*
X0069666Y0162185D02*
X0067106Y0162185D01*
X0069666Y0162185D02*
X0069666Y0161595D01*
X0067106Y0161595D01*
X0067106Y0162185D01*
X0069666Y0162185D01*
X0069666Y0164153D02*
X0067106Y0164153D01*
X0069666Y0164153D02*
X0069666Y0163563D01*
X0067106Y0163563D01*
X0067106Y0164153D01*
X0069666Y0164153D01*
X0069666Y0166122D02*
X0067106Y0166122D01*
X0069666Y0166122D02*
X0069666Y0165532D01*
X0067106Y0165532D01*
X0067106Y0166122D01*
X0069666Y0166122D01*
X0069666Y0168090D02*
X0067106Y0168090D01*
X0069666Y0168090D02*
X0069666Y0167500D01*
X0067106Y0167500D01*
X0067106Y0168090D01*
X0069666Y0168090D01*
X0069666Y0170059D02*
X0067106Y0170059D01*
X0069666Y0170059D02*
X0069666Y0169469D01*
X0067106Y0169469D01*
X0067106Y0170059D01*
X0069666Y0170059D01*
X0069666Y0172027D02*
X0067106Y0172027D01*
X0069666Y0172027D02*
X0069666Y0171437D01*
X0067106Y0171437D01*
X0067106Y0172027D01*
X0069666Y0172027D01*
X0069666Y0173996D02*
X0067106Y0173996D01*
X0069666Y0173996D02*
X0069666Y0173406D01*
X0067106Y0173406D01*
X0067106Y0173996D01*
X0069666Y0173996D01*
X0069666Y0175964D02*
X0067106Y0175964D01*
X0069666Y0175964D02*
X0069666Y0175374D01*
X0067106Y0175374D01*
X0067106Y0175964D01*
X0069666Y0175964D01*
X0069666Y0177933D02*
X0067106Y0177933D01*
X0069666Y0177933D02*
X0069666Y0177343D01*
X0067106Y0177343D01*
X0067106Y0177933D01*
X0069666Y0177933D01*
X0069666Y0179901D02*
X0067106Y0179901D01*
X0069666Y0179901D02*
X0069666Y0179311D01*
X0067106Y0179311D01*
X0067106Y0179901D01*
X0069666Y0179901D01*
X0065138Y0181279D02*
X0065138Y0183839D01*
X0065728Y0183839D01*
X0065728Y0181279D01*
X0065138Y0181279D01*
X0065138Y0181869D02*
X0065728Y0181869D01*
X0065728Y0182459D02*
X0065138Y0182459D01*
X0065138Y0183049D02*
X0065728Y0183049D01*
X0065728Y0183639D02*
X0065138Y0183639D01*
X0063170Y0183839D02*
X0063170Y0181279D01*
X0063170Y0183839D02*
X0063760Y0183839D01*
X0063760Y0181279D01*
X0063170Y0181279D01*
X0063170Y0181869D02*
X0063760Y0181869D01*
X0063760Y0182459D02*
X0063170Y0182459D01*
X0063170Y0183049D02*
X0063760Y0183049D01*
X0063760Y0183639D02*
X0063170Y0183639D01*
X0061201Y0183839D02*
X0061201Y0181279D01*
X0061201Y0183839D02*
X0061791Y0183839D01*
X0061791Y0181279D01*
X0061201Y0181279D01*
X0061201Y0181869D02*
X0061791Y0181869D01*
X0061791Y0182459D02*
X0061201Y0182459D01*
X0061201Y0183049D02*
X0061791Y0183049D01*
X0061791Y0183639D02*
X0061201Y0183639D01*
X0059233Y0183839D02*
X0059233Y0181279D01*
X0059233Y0183839D02*
X0059823Y0183839D01*
X0059823Y0181279D01*
X0059233Y0181279D01*
X0059233Y0181869D02*
X0059823Y0181869D01*
X0059823Y0182459D02*
X0059233Y0182459D01*
X0059233Y0183049D02*
X0059823Y0183049D01*
X0059823Y0183639D02*
X0059233Y0183639D01*
X0057264Y0183839D02*
X0057264Y0181279D01*
X0057264Y0183839D02*
X0057854Y0183839D01*
X0057854Y0181279D01*
X0057264Y0181279D01*
X0057264Y0181869D02*
X0057854Y0181869D01*
X0057854Y0182459D02*
X0057264Y0182459D01*
X0057264Y0183049D02*
X0057854Y0183049D01*
X0057854Y0183639D02*
X0057264Y0183639D01*
X0055296Y0183839D02*
X0055296Y0181279D01*
X0055296Y0183839D02*
X0055886Y0183839D01*
X0055886Y0181279D01*
X0055296Y0181279D01*
X0055296Y0181869D02*
X0055886Y0181869D01*
X0055886Y0182459D02*
X0055296Y0182459D01*
X0055296Y0183049D02*
X0055886Y0183049D01*
X0055886Y0183639D02*
X0055296Y0183639D01*
X0072520Y0289154D02*
X0073110Y0289154D01*
X0072520Y0289154D02*
X0072520Y0292500D01*
X0073110Y0292500D01*
X0073110Y0289154D01*
X0073110Y0289744D02*
X0072520Y0289744D01*
X0072520Y0290334D02*
X0073110Y0290334D01*
X0073110Y0290924D02*
X0072520Y0290924D01*
X0072520Y0291514D02*
X0073110Y0291514D01*
X0073110Y0292104D02*
X0072520Y0292104D01*
X0075079Y0289154D02*
X0075669Y0289154D01*
X0075079Y0289154D02*
X0075079Y0292500D01*
X0075669Y0292500D01*
X0075669Y0289154D01*
X0075669Y0289744D02*
X0075079Y0289744D01*
X0075079Y0290334D02*
X0075669Y0290334D01*
X0075669Y0290924D02*
X0075079Y0290924D01*
X0075079Y0291514D02*
X0075669Y0291514D01*
X0075669Y0292104D02*
X0075079Y0292104D01*
X0077638Y0289154D02*
X0078228Y0289154D01*
X0077638Y0289154D02*
X0077638Y0292500D01*
X0078228Y0292500D01*
X0078228Y0289154D01*
X0078228Y0289744D02*
X0077638Y0289744D01*
X0077638Y0290334D02*
X0078228Y0290334D01*
X0078228Y0290924D02*
X0077638Y0290924D01*
X0077638Y0291514D02*
X0078228Y0291514D01*
X0078228Y0292104D02*
X0077638Y0292104D01*
X0080197Y0289154D02*
X0080787Y0289154D01*
X0080197Y0289154D02*
X0080197Y0292500D01*
X0080787Y0292500D01*
X0080787Y0289154D01*
X0080787Y0289744D02*
X0080197Y0289744D01*
X0080197Y0290334D02*
X0080787Y0290334D01*
X0080787Y0290924D02*
X0080197Y0290924D01*
X0080197Y0291514D02*
X0080787Y0291514D01*
X0080787Y0292104D02*
X0080197Y0292104D01*
X0080197Y0301752D02*
X0080787Y0301752D01*
X0080197Y0301752D02*
X0080197Y0305098D01*
X0080787Y0305098D01*
X0080787Y0301752D01*
X0080787Y0302342D02*
X0080197Y0302342D01*
X0080197Y0302932D02*
X0080787Y0302932D01*
X0080787Y0303522D02*
X0080197Y0303522D01*
X0080197Y0304112D02*
X0080787Y0304112D01*
X0080787Y0304702D02*
X0080197Y0304702D01*
X0078228Y0301752D02*
X0077638Y0301752D01*
X0077638Y0305098D01*
X0078228Y0305098D01*
X0078228Y0301752D01*
X0078228Y0302342D02*
X0077638Y0302342D01*
X0077638Y0302932D02*
X0078228Y0302932D01*
X0078228Y0303522D02*
X0077638Y0303522D01*
X0077638Y0304112D02*
X0078228Y0304112D01*
X0078228Y0304702D02*
X0077638Y0304702D01*
X0075669Y0301752D02*
X0075079Y0301752D01*
X0075079Y0305098D01*
X0075669Y0305098D01*
X0075669Y0301752D01*
X0075669Y0302342D02*
X0075079Y0302342D01*
X0075079Y0302932D02*
X0075669Y0302932D01*
X0075669Y0303522D02*
X0075079Y0303522D01*
X0075079Y0304112D02*
X0075669Y0304112D01*
X0075669Y0304702D02*
X0075079Y0304702D01*
X0073110Y0301752D02*
X0072520Y0301752D01*
X0072520Y0305098D01*
X0073110Y0305098D01*
X0073110Y0301752D01*
X0073110Y0302342D02*
X0072520Y0302342D01*
X0072520Y0302932D02*
X0073110Y0302932D01*
X0073110Y0303522D02*
X0072520Y0303522D01*
X0072520Y0304112D02*
X0073110Y0304112D01*
X0073110Y0304702D02*
X0072520Y0304702D01*
X0149390Y0124784D02*
X0149980Y0124784D01*
X0149980Y0123012D01*
X0149390Y0123012D01*
X0149390Y0124784D01*
X0149390Y0123602D02*
X0149980Y0123602D01*
X0149980Y0124192D02*
X0149390Y0124192D01*
X0149390Y0124782D02*
X0149980Y0124782D01*
X0151949Y0124784D02*
X0152539Y0124784D01*
X0152539Y0123012D01*
X0151949Y0123012D01*
X0151949Y0124784D01*
X0151949Y0123602D02*
X0152539Y0123602D01*
X0152539Y0124192D02*
X0151949Y0124192D01*
X0151949Y0124782D02*
X0152539Y0124782D01*
X0154508Y0124784D02*
X0155098Y0124784D01*
X0155098Y0123012D01*
X0154508Y0123012D01*
X0154508Y0124784D01*
X0154508Y0123602D02*
X0155098Y0123602D01*
X0155098Y0124192D02*
X0154508Y0124192D01*
X0154508Y0124782D02*
X0155098Y0124782D01*
X0155098Y0116910D02*
X0154508Y0116910D01*
X0155098Y0116910D02*
X0155098Y0115138D01*
X0154508Y0115138D01*
X0154508Y0116910D01*
X0154508Y0115728D02*
X0155098Y0115728D01*
X0155098Y0116318D02*
X0154508Y0116318D01*
X0154508Y0116908D02*
X0155098Y0116908D01*
X0152539Y0116910D02*
X0151949Y0116910D01*
X0152539Y0116910D02*
X0152539Y0115138D01*
X0151949Y0115138D01*
X0151949Y0116910D01*
X0151949Y0115728D02*
X0152539Y0115728D01*
X0152539Y0116318D02*
X0151949Y0116318D01*
X0151949Y0116908D02*
X0152539Y0116908D01*
X0149980Y0116910D02*
X0149390Y0116910D01*
X0149980Y0116910D02*
X0149980Y0115138D01*
X0149390Y0115138D01*
X0149390Y0116910D01*
X0149390Y0115728D02*
X0149980Y0115728D01*
X0149980Y0116318D02*
X0149390Y0116318D01*
X0149390Y0116908D02*
X0149980Y0116908D01*
D12*
X0127559Y0140020D03*
X0127559Y0145020D03*
X0127559Y0150020D03*
X0127559Y0155020D03*
X0101339Y0155020D03*
X0101339Y0150020D03*
X0101339Y0145020D03*
X0101339Y0140020D03*
X0093189Y0204587D03*
X0093189Y0209587D03*
X0093189Y0214587D03*
X0093189Y0219587D03*
X0072717Y0219587D03*
X0072717Y0214587D03*
X0072717Y0209587D03*
X0072717Y0204587D03*
D13*
X0083543Y0198701D03*
X0090236Y0198701D03*
X0083937Y0181378D03*
X0077244Y0181378D03*
X0053819Y0191417D03*
X0053819Y0198110D03*
X0027244Y0200276D03*
X0027244Y0193976D03*
X0027244Y0187677D03*
X0020551Y0187677D03*
X0020551Y0193976D03*
X0020551Y0200276D03*
X0020551Y0163268D03*
X0027244Y0163268D03*
X0027244Y0156181D03*
X0020551Y0156181D03*
X0020551Y0149094D03*
X0027244Y0149094D03*
X0033346Y0145748D03*
X0033346Y0152441D03*
X0059921Y0123898D03*
X0059921Y0116811D03*
X0059921Y0109724D03*
X0066614Y0109724D03*
X0066614Y0116811D03*
X0066614Y0123898D03*
X0088465Y0113858D03*
X0088465Y0107165D03*
X0095551Y0107165D03*
X0095551Y0113858D03*
X0102441Y0114449D03*
X0109134Y0114449D03*
X0109134Y0121535D03*
X0102441Y0121535D03*
X0107165Y0134134D03*
X0113858Y0134134D03*
X0160906Y0130394D03*
X0160906Y0123701D03*
X0137480Y0214449D03*
X0130787Y0214449D03*
X0124882Y0214449D03*
X0118189Y0214449D03*
X0080000Y0282953D03*
X0073307Y0282953D03*
X0065827Y0282953D03*
X0059134Y0282953D03*
X0033346Y0255591D03*
X0033346Y0248898D03*
X0026260Y0249685D03*
X0026260Y0256378D03*
X0019173Y0256378D03*
X0019173Y0249685D03*
X0035512Y0079803D03*
X0035512Y0074291D03*
X0042205Y0074291D03*
X0042205Y0079803D03*
X0049685Y0079803D03*
X0049685Y0074291D03*
X0056378Y0074291D03*
X0056378Y0079803D03*
X0056378Y0063268D03*
X0049685Y0063268D03*
X0042205Y0063268D03*
X0035512Y0063268D03*
X0035906Y0038071D03*
X0035906Y0030197D03*
X0029213Y0030197D03*
X0029213Y0038071D03*
X0163268Y0016220D03*
X0169567Y0016220D03*
X0169567Y0009528D03*
X0163268Y0009528D03*
D14*
X0127638Y0220945D03*
X0127638Y0228425D03*
X0118583Y0228425D03*
X0118583Y0224685D03*
X0118583Y0220945D03*
D15*
X0118583Y0235709D03*
X0126063Y0235709D03*
X0136693Y0223898D03*
X0144173Y0223898D03*
X0129213Y0267205D03*
X0121732Y0267205D03*
X0178425Y0082953D03*
X0185906Y0082953D03*
D16*
X0145157Y0207559D03*
X0145157Y0215039D03*
X0149094Y0278425D03*
X0149094Y0285906D03*
X0061693Y0041024D03*
X0061693Y0033543D03*
D17*
X0049094Y0030787D03*
X0049094Y0037480D03*
X0049094Y0044961D03*
X0049094Y0051654D03*
X0027047Y0082756D03*
X0027047Y0089449D03*
X0019961Y0089449D03*
X0019961Y0082756D03*
X0019961Y0112677D03*
X0019961Y0119370D03*
X0026260Y0119370D03*
X0026260Y0112677D03*
X0060118Y0137874D03*
X0060118Y0144567D03*
X0066417Y0144567D03*
X0072717Y0144567D03*
X0072717Y0137874D03*
X0066417Y0137874D03*
X0073307Y0109724D03*
X0080000Y0109724D03*
X0062480Y0100472D03*
X0062480Y0093780D03*
X0115827Y0123898D03*
X0122520Y0123898D03*
X0091811Y0163268D03*
X0085118Y0163268D03*
X0118189Y0207362D03*
X0124882Y0207362D03*
X0130787Y0207362D03*
X0137480Y0207362D03*
X0190039Y0204803D03*
X0190039Y0211496D03*
X0164843Y0286693D03*
X0164843Y0293386D03*
X0133543Y0308150D03*
X0126850Y0308150D03*
X0093386Y0282953D03*
X0086693Y0282953D03*
X0088465Y0290630D03*
X0088465Y0297323D03*
X0079213Y0310512D03*
X0072520Y0310512D03*
X0065827Y0310512D03*
X0059134Y0310512D03*
X0059134Y0303425D03*
X0065827Y0303425D03*
X0065827Y0296339D03*
X0059134Y0296339D03*
X0059134Y0289252D03*
X0065827Y0289252D03*
X0033543Y0242795D03*
X0026850Y0242795D03*
X0044370Y0201260D03*
X0044370Y0194567D03*
X0157756Y0056378D03*
X0157756Y0049685D03*
X0156772Y0042008D03*
X0163465Y0042008D03*
X0170157Y0042008D03*
X0176850Y0042008D03*
X0167402Y0117598D03*
X0160709Y0117598D03*
D18*
X0144370Y0234134D03*
X0134921Y0234134D03*
D19*
X0096535Y0169567D03*
X0088268Y0169567D03*
X0126850Y0315236D03*
X0135118Y0315236D03*
X0149094Y0017795D03*
X0156969Y0017795D03*
X0156969Y0009528D03*
X0149094Y0009528D03*
D20*
X0005000Y0008937D02*
X0005000Y0316024D01*
X0005002Y0316148D01*
X0005008Y0316271D01*
X0005017Y0316395D01*
X0005031Y0316517D01*
X0005048Y0316640D01*
X0005070Y0316762D01*
X0005095Y0316883D01*
X0005124Y0317003D01*
X0005156Y0317122D01*
X0005193Y0317241D01*
X0005233Y0317358D01*
X0005276Y0317473D01*
X0005324Y0317588D01*
X0005375Y0317700D01*
X0005429Y0317811D01*
X0005487Y0317921D01*
X0005548Y0318028D01*
X0005613Y0318134D01*
X0005681Y0318237D01*
X0005752Y0318338D01*
X0005826Y0318437D01*
X0005903Y0318534D01*
X0005984Y0318628D01*
X0006067Y0318719D01*
X0006153Y0318808D01*
X0006242Y0318894D01*
X0006333Y0318977D01*
X0006427Y0319058D01*
X0006524Y0319135D01*
X0006623Y0319209D01*
X0006724Y0319280D01*
X0006827Y0319348D01*
X0006933Y0319413D01*
X0007040Y0319474D01*
X0007150Y0319532D01*
X0007261Y0319586D01*
X0007373Y0319637D01*
X0007488Y0319685D01*
X0007603Y0319728D01*
X0007720Y0319768D01*
X0007839Y0319805D01*
X0007958Y0319837D01*
X0008078Y0319866D01*
X0008199Y0319891D01*
X0008321Y0319913D01*
X0008444Y0319930D01*
X0008566Y0319944D01*
X0008690Y0319953D01*
X0008813Y0319959D01*
X0008937Y0319961D01*
X0197913Y0319961D01*
X0198037Y0319959D01*
X0198160Y0319953D01*
X0198284Y0319944D01*
X0198406Y0319930D01*
X0198529Y0319913D01*
X0198651Y0319891D01*
X0198772Y0319866D01*
X0198892Y0319837D01*
X0199011Y0319805D01*
X0199130Y0319768D01*
X0199247Y0319728D01*
X0199362Y0319685D01*
X0199477Y0319637D01*
X0199589Y0319586D01*
X0199700Y0319532D01*
X0199810Y0319474D01*
X0199917Y0319413D01*
X0200023Y0319348D01*
X0200126Y0319280D01*
X0200227Y0319209D01*
X0200326Y0319135D01*
X0200423Y0319058D01*
X0200517Y0318977D01*
X0200608Y0318894D01*
X0200697Y0318808D01*
X0200783Y0318719D01*
X0200866Y0318628D01*
X0200947Y0318534D01*
X0201024Y0318437D01*
X0201098Y0318338D01*
X0201169Y0318237D01*
X0201237Y0318134D01*
X0201302Y0318028D01*
X0201363Y0317921D01*
X0201421Y0317811D01*
X0201475Y0317700D01*
X0201526Y0317588D01*
X0201574Y0317473D01*
X0201617Y0317358D01*
X0201657Y0317241D01*
X0201694Y0317122D01*
X0201726Y0317003D01*
X0201755Y0316883D01*
X0201780Y0316762D01*
X0201802Y0316640D01*
X0201819Y0316517D01*
X0201833Y0316395D01*
X0201842Y0316271D01*
X0201848Y0316148D01*
X0201850Y0316024D01*
X0201850Y0008937D01*
X0201848Y0008813D01*
X0201842Y0008690D01*
X0201833Y0008566D01*
X0201819Y0008444D01*
X0201802Y0008321D01*
X0201780Y0008199D01*
X0201755Y0008078D01*
X0201726Y0007958D01*
X0201694Y0007839D01*
X0201657Y0007720D01*
X0201617Y0007603D01*
X0201574Y0007488D01*
X0201526Y0007373D01*
X0201475Y0007261D01*
X0201421Y0007150D01*
X0201363Y0007040D01*
X0201302Y0006933D01*
X0201237Y0006827D01*
X0201169Y0006724D01*
X0201098Y0006623D01*
X0201024Y0006524D01*
X0200947Y0006427D01*
X0200866Y0006333D01*
X0200783Y0006242D01*
X0200697Y0006153D01*
X0200608Y0006067D01*
X0200517Y0005984D01*
X0200423Y0005903D01*
X0200326Y0005826D01*
X0200227Y0005752D01*
X0200126Y0005681D01*
X0200023Y0005613D01*
X0199917Y0005548D01*
X0199810Y0005487D01*
X0199700Y0005429D01*
X0199589Y0005375D01*
X0199477Y0005324D01*
X0199362Y0005276D01*
X0199247Y0005233D01*
X0199130Y0005193D01*
X0199011Y0005156D01*
X0198892Y0005124D01*
X0198772Y0005095D01*
X0198651Y0005070D01*
X0198529Y0005048D01*
X0198406Y0005031D01*
X0198284Y0005017D01*
X0198160Y0005008D01*
X0198037Y0005002D01*
X0197913Y0005000D01*
X0008937Y0005000D01*
X0008813Y0005002D01*
X0008690Y0005008D01*
X0008566Y0005017D01*
X0008444Y0005031D01*
X0008321Y0005048D01*
X0008199Y0005070D01*
X0008078Y0005095D01*
X0007958Y0005124D01*
X0007839Y0005156D01*
X0007720Y0005193D01*
X0007603Y0005233D01*
X0007488Y0005276D01*
X0007373Y0005324D01*
X0007261Y0005375D01*
X0007150Y0005429D01*
X0007040Y0005487D01*
X0006933Y0005548D01*
X0006827Y0005613D01*
X0006724Y0005681D01*
X0006623Y0005752D01*
X0006524Y0005826D01*
X0006427Y0005903D01*
X0006333Y0005984D01*
X0006242Y0006067D01*
X0006153Y0006153D01*
X0006067Y0006242D01*
X0005984Y0006333D01*
X0005903Y0006427D01*
X0005826Y0006524D01*
X0005752Y0006623D01*
X0005681Y0006724D01*
X0005613Y0006827D01*
X0005548Y0006933D01*
X0005487Y0007040D01*
X0005429Y0007150D01*
X0005375Y0007261D01*
X0005324Y0007373D01*
X0005276Y0007488D01*
X0005233Y0007603D01*
X0005193Y0007720D01*
X0005156Y0007839D01*
X0005124Y0007958D01*
X0005095Y0008078D01*
X0005070Y0008199D01*
X0005048Y0008321D01*
X0005031Y0008444D01*
X0005017Y0008566D01*
X0005008Y0008690D01*
X0005002Y0008813D01*
X0005000Y0008937D01*
D21*
X0060315Y0240492D03*
X0060315Y0245492D03*
X0060315Y0250492D03*
X0060315Y0255492D03*
X0060315Y0260492D03*
X0060315Y0265492D03*
X0083543Y0265492D03*
X0083543Y0260492D03*
X0083543Y0255492D03*
X0083543Y0250492D03*
X0083543Y0245492D03*
X0083543Y0240492D03*
X0158740Y0240492D03*
X0158740Y0245492D03*
X0158740Y0250492D03*
X0158740Y0255492D03*
X0158740Y0260492D03*
X0158740Y0265492D03*
X0181969Y0265492D03*
X0181969Y0260492D03*
X0181969Y0255492D03*
X0181969Y0250492D03*
X0181969Y0245492D03*
X0181969Y0240492D03*
D22*
X0180394Y0230197D03*
X0160315Y0230197D03*
X0160315Y0275866D03*
X0180394Y0275866D03*
X0081969Y0275866D03*
X0061890Y0275866D03*
X0061890Y0230197D03*
X0081969Y0230197D03*
D23*
X0068779Y0231831D02*
X0068781Y0231943D01*
X0068787Y0232054D01*
X0068797Y0232166D01*
X0068811Y0232277D01*
X0068828Y0232387D01*
X0068850Y0232497D01*
X0068876Y0232606D01*
X0068905Y0232714D01*
X0068938Y0232820D01*
X0068975Y0232926D01*
X0069016Y0233030D01*
X0069061Y0233133D01*
X0069109Y0233234D01*
X0069160Y0233333D01*
X0069215Y0233430D01*
X0069274Y0233525D01*
X0069335Y0233619D01*
X0069400Y0233710D01*
X0069469Y0233798D01*
X0069540Y0233884D01*
X0069614Y0233968D01*
X0069692Y0234048D01*
X0069772Y0234126D01*
X0069855Y0234202D01*
X0069940Y0234274D01*
X0070028Y0234343D01*
X0070118Y0234409D01*
X0070211Y0234471D01*
X0070306Y0234531D01*
X0070403Y0234587D01*
X0070501Y0234639D01*
X0070602Y0234688D01*
X0070704Y0234733D01*
X0070808Y0234775D01*
X0070913Y0234813D01*
X0071020Y0234847D01*
X0071127Y0234877D01*
X0071236Y0234904D01*
X0071345Y0234926D01*
X0071456Y0234945D01*
X0071566Y0234960D01*
X0071678Y0234971D01*
X0071789Y0234978D01*
X0071901Y0234981D01*
X0072013Y0234980D01*
X0072125Y0234975D01*
X0072236Y0234966D01*
X0072347Y0234953D01*
X0072458Y0234936D01*
X0072568Y0234916D01*
X0072677Y0234891D01*
X0072785Y0234863D01*
X0072892Y0234830D01*
X0072998Y0234794D01*
X0073102Y0234754D01*
X0073205Y0234711D01*
X0073307Y0234664D01*
X0073406Y0234613D01*
X0073504Y0234559D01*
X0073600Y0234501D01*
X0073694Y0234440D01*
X0073785Y0234376D01*
X0073874Y0234309D01*
X0073961Y0234238D01*
X0074045Y0234164D01*
X0074127Y0234088D01*
X0074205Y0234008D01*
X0074281Y0233926D01*
X0074354Y0233841D01*
X0074424Y0233754D01*
X0074490Y0233664D01*
X0074554Y0233572D01*
X0074614Y0233478D01*
X0074671Y0233382D01*
X0074724Y0233283D01*
X0074774Y0233183D01*
X0074820Y0233082D01*
X0074863Y0232978D01*
X0074902Y0232873D01*
X0074937Y0232767D01*
X0074968Y0232660D01*
X0074996Y0232551D01*
X0075019Y0232442D01*
X0075039Y0232332D01*
X0075055Y0232221D01*
X0075067Y0232110D01*
X0075075Y0231999D01*
X0075079Y0231887D01*
X0075079Y0231775D01*
X0075075Y0231663D01*
X0075067Y0231552D01*
X0075055Y0231441D01*
X0075039Y0231330D01*
X0075019Y0231220D01*
X0074996Y0231111D01*
X0074968Y0231002D01*
X0074937Y0230895D01*
X0074902Y0230789D01*
X0074863Y0230684D01*
X0074820Y0230580D01*
X0074774Y0230479D01*
X0074724Y0230379D01*
X0074671Y0230280D01*
X0074614Y0230184D01*
X0074554Y0230090D01*
X0074490Y0229998D01*
X0074424Y0229908D01*
X0074354Y0229821D01*
X0074281Y0229736D01*
X0074205Y0229654D01*
X0074127Y0229574D01*
X0074045Y0229498D01*
X0073961Y0229424D01*
X0073874Y0229353D01*
X0073785Y0229286D01*
X0073694Y0229222D01*
X0073600Y0229161D01*
X0073504Y0229103D01*
X0073406Y0229049D01*
X0073307Y0228998D01*
X0073205Y0228951D01*
X0073102Y0228908D01*
X0072998Y0228868D01*
X0072892Y0228832D01*
X0072785Y0228799D01*
X0072677Y0228771D01*
X0072568Y0228746D01*
X0072458Y0228726D01*
X0072347Y0228709D01*
X0072236Y0228696D01*
X0072125Y0228687D01*
X0072013Y0228682D01*
X0071901Y0228681D01*
X0071789Y0228684D01*
X0071678Y0228691D01*
X0071566Y0228702D01*
X0071456Y0228717D01*
X0071345Y0228736D01*
X0071236Y0228758D01*
X0071127Y0228785D01*
X0071020Y0228815D01*
X0070913Y0228849D01*
X0070808Y0228887D01*
X0070704Y0228929D01*
X0070602Y0228974D01*
X0070501Y0229023D01*
X0070403Y0229075D01*
X0070306Y0229131D01*
X0070211Y0229191D01*
X0070118Y0229253D01*
X0070028Y0229319D01*
X0069940Y0229388D01*
X0069855Y0229460D01*
X0069772Y0229536D01*
X0069692Y0229614D01*
X0069614Y0229694D01*
X0069540Y0229778D01*
X0069469Y0229864D01*
X0069400Y0229952D01*
X0069335Y0230043D01*
X0069274Y0230137D01*
X0069215Y0230232D01*
X0069160Y0230329D01*
X0069109Y0230428D01*
X0069061Y0230529D01*
X0069016Y0230632D01*
X0068975Y0230736D01*
X0068938Y0230842D01*
X0068905Y0230948D01*
X0068876Y0231056D01*
X0068850Y0231165D01*
X0068828Y0231275D01*
X0068811Y0231385D01*
X0068797Y0231496D01*
X0068787Y0231608D01*
X0068781Y0231719D01*
X0068779Y0231831D01*
X0068779Y0274232D02*
X0068781Y0274344D01*
X0068787Y0274455D01*
X0068797Y0274567D01*
X0068811Y0274678D01*
X0068828Y0274788D01*
X0068850Y0274898D01*
X0068876Y0275007D01*
X0068905Y0275115D01*
X0068938Y0275221D01*
X0068975Y0275327D01*
X0069016Y0275431D01*
X0069061Y0275534D01*
X0069109Y0275635D01*
X0069160Y0275734D01*
X0069215Y0275831D01*
X0069274Y0275926D01*
X0069335Y0276020D01*
X0069400Y0276111D01*
X0069469Y0276199D01*
X0069540Y0276285D01*
X0069614Y0276369D01*
X0069692Y0276449D01*
X0069772Y0276527D01*
X0069855Y0276603D01*
X0069940Y0276675D01*
X0070028Y0276744D01*
X0070118Y0276810D01*
X0070211Y0276872D01*
X0070306Y0276932D01*
X0070403Y0276988D01*
X0070501Y0277040D01*
X0070602Y0277089D01*
X0070704Y0277134D01*
X0070808Y0277176D01*
X0070913Y0277214D01*
X0071020Y0277248D01*
X0071127Y0277278D01*
X0071236Y0277305D01*
X0071345Y0277327D01*
X0071456Y0277346D01*
X0071566Y0277361D01*
X0071678Y0277372D01*
X0071789Y0277379D01*
X0071901Y0277382D01*
X0072013Y0277381D01*
X0072125Y0277376D01*
X0072236Y0277367D01*
X0072347Y0277354D01*
X0072458Y0277337D01*
X0072568Y0277317D01*
X0072677Y0277292D01*
X0072785Y0277264D01*
X0072892Y0277231D01*
X0072998Y0277195D01*
X0073102Y0277155D01*
X0073205Y0277112D01*
X0073307Y0277065D01*
X0073406Y0277014D01*
X0073504Y0276960D01*
X0073600Y0276902D01*
X0073694Y0276841D01*
X0073785Y0276777D01*
X0073874Y0276710D01*
X0073961Y0276639D01*
X0074045Y0276565D01*
X0074127Y0276489D01*
X0074205Y0276409D01*
X0074281Y0276327D01*
X0074354Y0276242D01*
X0074424Y0276155D01*
X0074490Y0276065D01*
X0074554Y0275973D01*
X0074614Y0275879D01*
X0074671Y0275783D01*
X0074724Y0275684D01*
X0074774Y0275584D01*
X0074820Y0275483D01*
X0074863Y0275379D01*
X0074902Y0275274D01*
X0074937Y0275168D01*
X0074968Y0275061D01*
X0074996Y0274952D01*
X0075019Y0274843D01*
X0075039Y0274733D01*
X0075055Y0274622D01*
X0075067Y0274511D01*
X0075075Y0274400D01*
X0075079Y0274288D01*
X0075079Y0274176D01*
X0075075Y0274064D01*
X0075067Y0273953D01*
X0075055Y0273842D01*
X0075039Y0273731D01*
X0075019Y0273621D01*
X0074996Y0273512D01*
X0074968Y0273403D01*
X0074937Y0273296D01*
X0074902Y0273190D01*
X0074863Y0273085D01*
X0074820Y0272981D01*
X0074774Y0272880D01*
X0074724Y0272780D01*
X0074671Y0272681D01*
X0074614Y0272585D01*
X0074554Y0272491D01*
X0074490Y0272399D01*
X0074424Y0272309D01*
X0074354Y0272222D01*
X0074281Y0272137D01*
X0074205Y0272055D01*
X0074127Y0271975D01*
X0074045Y0271899D01*
X0073961Y0271825D01*
X0073874Y0271754D01*
X0073785Y0271687D01*
X0073694Y0271623D01*
X0073600Y0271562D01*
X0073504Y0271504D01*
X0073406Y0271450D01*
X0073307Y0271399D01*
X0073205Y0271352D01*
X0073102Y0271309D01*
X0072998Y0271269D01*
X0072892Y0271233D01*
X0072785Y0271200D01*
X0072677Y0271172D01*
X0072568Y0271147D01*
X0072458Y0271127D01*
X0072347Y0271110D01*
X0072236Y0271097D01*
X0072125Y0271088D01*
X0072013Y0271083D01*
X0071901Y0271082D01*
X0071789Y0271085D01*
X0071678Y0271092D01*
X0071566Y0271103D01*
X0071456Y0271118D01*
X0071345Y0271137D01*
X0071236Y0271159D01*
X0071127Y0271186D01*
X0071020Y0271216D01*
X0070913Y0271250D01*
X0070808Y0271288D01*
X0070704Y0271330D01*
X0070602Y0271375D01*
X0070501Y0271424D01*
X0070403Y0271476D01*
X0070306Y0271532D01*
X0070211Y0271592D01*
X0070118Y0271654D01*
X0070028Y0271720D01*
X0069940Y0271789D01*
X0069855Y0271861D01*
X0069772Y0271937D01*
X0069692Y0272015D01*
X0069614Y0272095D01*
X0069540Y0272179D01*
X0069469Y0272265D01*
X0069400Y0272353D01*
X0069335Y0272444D01*
X0069274Y0272538D01*
X0069215Y0272633D01*
X0069160Y0272730D01*
X0069109Y0272829D01*
X0069061Y0272930D01*
X0069016Y0273033D01*
X0068975Y0273137D01*
X0068938Y0273243D01*
X0068905Y0273349D01*
X0068876Y0273457D01*
X0068850Y0273566D01*
X0068828Y0273676D01*
X0068811Y0273786D01*
X0068797Y0273897D01*
X0068787Y0274009D01*
X0068781Y0274120D01*
X0068779Y0274232D01*
X0167204Y0274232D02*
X0167206Y0274344D01*
X0167212Y0274455D01*
X0167222Y0274567D01*
X0167236Y0274678D01*
X0167253Y0274788D01*
X0167275Y0274898D01*
X0167301Y0275007D01*
X0167330Y0275115D01*
X0167363Y0275221D01*
X0167400Y0275327D01*
X0167441Y0275431D01*
X0167486Y0275534D01*
X0167534Y0275635D01*
X0167585Y0275734D01*
X0167640Y0275831D01*
X0167699Y0275926D01*
X0167760Y0276020D01*
X0167825Y0276111D01*
X0167894Y0276199D01*
X0167965Y0276285D01*
X0168039Y0276369D01*
X0168117Y0276449D01*
X0168197Y0276527D01*
X0168280Y0276603D01*
X0168365Y0276675D01*
X0168453Y0276744D01*
X0168543Y0276810D01*
X0168636Y0276872D01*
X0168731Y0276932D01*
X0168828Y0276988D01*
X0168926Y0277040D01*
X0169027Y0277089D01*
X0169129Y0277134D01*
X0169233Y0277176D01*
X0169338Y0277214D01*
X0169445Y0277248D01*
X0169552Y0277278D01*
X0169661Y0277305D01*
X0169770Y0277327D01*
X0169881Y0277346D01*
X0169991Y0277361D01*
X0170103Y0277372D01*
X0170214Y0277379D01*
X0170326Y0277382D01*
X0170438Y0277381D01*
X0170550Y0277376D01*
X0170661Y0277367D01*
X0170772Y0277354D01*
X0170883Y0277337D01*
X0170993Y0277317D01*
X0171102Y0277292D01*
X0171210Y0277264D01*
X0171317Y0277231D01*
X0171423Y0277195D01*
X0171527Y0277155D01*
X0171630Y0277112D01*
X0171732Y0277065D01*
X0171831Y0277014D01*
X0171929Y0276960D01*
X0172025Y0276902D01*
X0172119Y0276841D01*
X0172210Y0276777D01*
X0172299Y0276710D01*
X0172386Y0276639D01*
X0172470Y0276565D01*
X0172552Y0276489D01*
X0172630Y0276409D01*
X0172706Y0276327D01*
X0172779Y0276242D01*
X0172849Y0276155D01*
X0172915Y0276065D01*
X0172979Y0275973D01*
X0173039Y0275879D01*
X0173096Y0275783D01*
X0173149Y0275684D01*
X0173199Y0275584D01*
X0173245Y0275483D01*
X0173288Y0275379D01*
X0173327Y0275274D01*
X0173362Y0275168D01*
X0173393Y0275061D01*
X0173421Y0274952D01*
X0173444Y0274843D01*
X0173464Y0274733D01*
X0173480Y0274622D01*
X0173492Y0274511D01*
X0173500Y0274400D01*
X0173504Y0274288D01*
X0173504Y0274176D01*
X0173500Y0274064D01*
X0173492Y0273953D01*
X0173480Y0273842D01*
X0173464Y0273731D01*
X0173444Y0273621D01*
X0173421Y0273512D01*
X0173393Y0273403D01*
X0173362Y0273296D01*
X0173327Y0273190D01*
X0173288Y0273085D01*
X0173245Y0272981D01*
X0173199Y0272880D01*
X0173149Y0272780D01*
X0173096Y0272681D01*
X0173039Y0272585D01*
X0172979Y0272491D01*
X0172915Y0272399D01*
X0172849Y0272309D01*
X0172779Y0272222D01*
X0172706Y0272137D01*
X0172630Y0272055D01*
X0172552Y0271975D01*
X0172470Y0271899D01*
X0172386Y0271825D01*
X0172299Y0271754D01*
X0172210Y0271687D01*
X0172119Y0271623D01*
X0172025Y0271562D01*
X0171929Y0271504D01*
X0171831Y0271450D01*
X0171732Y0271399D01*
X0171630Y0271352D01*
X0171527Y0271309D01*
X0171423Y0271269D01*
X0171317Y0271233D01*
X0171210Y0271200D01*
X0171102Y0271172D01*
X0170993Y0271147D01*
X0170883Y0271127D01*
X0170772Y0271110D01*
X0170661Y0271097D01*
X0170550Y0271088D01*
X0170438Y0271083D01*
X0170326Y0271082D01*
X0170214Y0271085D01*
X0170103Y0271092D01*
X0169991Y0271103D01*
X0169881Y0271118D01*
X0169770Y0271137D01*
X0169661Y0271159D01*
X0169552Y0271186D01*
X0169445Y0271216D01*
X0169338Y0271250D01*
X0169233Y0271288D01*
X0169129Y0271330D01*
X0169027Y0271375D01*
X0168926Y0271424D01*
X0168828Y0271476D01*
X0168731Y0271532D01*
X0168636Y0271592D01*
X0168543Y0271654D01*
X0168453Y0271720D01*
X0168365Y0271789D01*
X0168280Y0271861D01*
X0168197Y0271937D01*
X0168117Y0272015D01*
X0168039Y0272095D01*
X0167965Y0272179D01*
X0167894Y0272265D01*
X0167825Y0272353D01*
X0167760Y0272444D01*
X0167699Y0272538D01*
X0167640Y0272633D01*
X0167585Y0272730D01*
X0167534Y0272829D01*
X0167486Y0272930D01*
X0167441Y0273033D01*
X0167400Y0273137D01*
X0167363Y0273243D01*
X0167330Y0273349D01*
X0167301Y0273457D01*
X0167275Y0273566D01*
X0167253Y0273676D01*
X0167236Y0273786D01*
X0167222Y0273897D01*
X0167212Y0274009D01*
X0167206Y0274120D01*
X0167204Y0274232D01*
X0167204Y0231831D02*
X0167206Y0231943D01*
X0167212Y0232054D01*
X0167222Y0232166D01*
X0167236Y0232277D01*
X0167253Y0232387D01*
X0167275Y0232497D01*
X0167301Y0232606D01*
X0167330Y0232714D01*
X0167363Y0232820D01*
X0167400Y0232926D01*
X0167441Y0233030D01*
X0167486Y0233133D01*
X0167534Y0233234D01*
X0167585Y0233333D01*
X0167640Y0233430D01*
X0167699Y0233525D01*
X0167760Y0233619D01*
X0167825Y0233710D01*
X0167894Y0233798D01*
X0167965Y0233884D01*
X0168039Y0233968D01*
X0168117Y0234048D01*
X0168197Y0234126D01*
X0168280Y0234202D01*
X0168365Y0234274D01*
X0168453Y0234343D01*
X0168543Y0234409D01*
X0168636Y0234471D01*
X0168731Y0234531D01*
X0168828Y0234587D01*
X0168926Y0234639D01*
X0169027Y0234688D01*
X0169129Y0234733D01*
X0169233Y0234775D01*
X0169338Y0234813D01*
X0169445Y0234847D01*
X0169552Y0234877D01*
X0169661Y0234904D01*
X0169770Y0234926D01*
X0169881Y0234945D01*
X0169991Y0234960D01*
X0170103Y0234971D01*
X0170214Y0234978D01*
X0170326Y0234981D01*
X0170438Y0234980D01*
X0170550Y0234975D01*
X0170661Y0234966D01*
X0170772Y0234953D01*
X0170883Y0234936D01*
X0170993Y0234916D01*
X0171102Y0234891D01*
X0171210Y0234863D01*
X0171317Y0234830D01*
X0171423Y0234794D01*
X0171527Y0234754D01*
X0171630Y0234711D01*
X0171732Y0234664D01*
X0171831Y0234613D01*
X0171929Y0234559D01*
X0172025Y0234501D01*
X0172119Y0234440D01*
X0172210Y0234376D01*
X0172299Y0234309D01*
X0172386Y0234238D01*
X0172470Y0234164D01*
X0172552Y0234088D01*
X0172630Y0234008D01*
X0172706Y0233926D01*
X0172779Y0233841D01*
X0172849Y0233754D01*
X0172915Y0233664D01*
X0172979Y0233572D01*
X0173039Y0233478D01*
X0173096Y0233382D01*
X0173149Y0233283D01*
X0173199Y0233183D01*
X0173245Y0233082D01*
X0173288Y0232978D01*
X0173327Y0232873D01*
X0173362Y0232767D01*
X0173393Y0232660D01*
X0173421Y0232551D01*
X0173444Y0232442D01*
X0173464Y0232332D01*
X0173480Y0232221D01*
X0173492Y0232110D01*
X0173500Y0231999D01*
X0173504Y0231887D01*
X0173504Y0231775D01*
X0173500Y0231663D01*
X0173492Y0231552D01*
X0173480Y0231441D01*
X0173464Y0231330D01*
X0173444Y0231220D01*
X0173421Y0231111D01*
X0173393Y0231002D01*
X0173362Y0230895D01*
X0173327Y0230789D01*
X0173288Y0230684D01*
X0173245Y0230580D01*
X0173199Y0230479D01*
X0173149Y0230379D01*
X0173096Y0230280D01*
X0173039Y0230184D01*
X0172979Y0230090D01*
X0172915Y0229998D01*
X0172849Y0229908D01*
X0172779Y0229821D01*
X0172706Y0229736D01*
X0172630Y0229654D01*
X0172552Y0229574D01*
X0172470Y0229498D01*
X0172386Y0229424D01*
X0172299Y0229353D01*
X0172210Y0229286D01*
X0172119Y0229222D01*
X0172025Y0229161D01*
X0171929Y0229103D01*
X0171831Y0229049D01*
X0171732Y0228998D01*
X0171630Y0228951D01*
X0171527Y0228908D01*
X0171423Y0228868D01*
X0171317Y0228832D01*
X0171210Y0228799D01*
X0171102Y0228771D01*
X0170993Y0228746D01*
X0170883Y0228726D01*
X0170772Y0228709D01*
X0170661Y0228696D01*
X0170550Y0228687D01*
X0170438Y0228682D01*
X0170326Y0228681D01*
X0170214Y0228684D01*
X0170103Y0228691D01*
X0169991Y0228702D01*
X0169881Y0228717D01*
X0169770Y0228736D01*
X0169661Y0228758D01*
X0169552Y0228785D01*
X0169445Y0228815D01*
X0169338Y0228849D01*
X0169233Y0228887D01*
X0169129Y0228929D01*
X0169027Y0228974D01*
X0168926Y0229023D01*
X0168828Y0229075D01*
X0168731Y0229131D01*
X0168636Y0229191D01*
X0168543Y0229253D01*
X0168453Y0229319D01*
X0168365Y0229388D01*
X0168280Y0229460D01*
X0168197Y0229536D01*
X0168117Y0229614D01*
X0168039Y0229694D01*
X0167965Y0229778D01*
X0167894Y0229864D01*
X0167825Y0229952D01*
X0167760Y0230043D01*
X0167699Y0230137D01*
X0167640Y0230232D01*
X0167585Y0230329D01*
X0167534Y0230428D01*
X0167486Y0230529D01*
X0167441Y0230632D01*
X0167400Y0230736D01*
X0167363Y0230842D01*
X0167330Y0230948D01*
X0167301Y0231056D01*
X0167275Y0231165D01*
X0167253Y0231275D01*
X0167236Y0231385D01*
X0167222Y0231496D01*
X0167212Y0231608D01*
X0167206Y0231719D01*
X0167204Y0231831D01*
X0155000Y0138543D02*
X0155002Y0138648D01*
X0155008Y0138753D01*
X0155018Y0138857D01*
X0155032Y0138961D01*
X0155050Y0139065D01*
X0155072Y0139167D01*
X0155097Y0139269D01*
X0155127Y0139370D01*
X0155160Y0139469D01*
X0155197Y0139567D01*
X0155238Y0139664D01*
X0155283Y0139759D01*
X0155331Y0139852D01*
X0155382Y0139944D01*
X0155438Y0140033D01*
X0155496Y0140120D01*
X0155558Y0140205D01*
X0155622Y0140288D01*
X0155690Y0140368D01*
X0155761Y0140445D01*
X0155835Y0140519D01*
X0155912Y0140591D01*
X0155991Y0140660D01*
X0156073Y0140725D01*
X0156157Y0140788D01*
X0156244Y0140847D01*
X0156333Y0140903D01*
X0156424Y0140956D01*
X0156517Y0141005D01*
X0156611Y0141050D01*
X0156707Y0141092D01*
X0156805Y0141130D01*
X0156904Y0141164D01*
X0157005Y0141195D01*
X0157106Y0141221D01*
X0157209Y0141244D01*
X0157312Y0141263D01*
X0157416Y0141278D01*
X0157520Y0141289D01*
X0157625Y0141296D01*
X0157730Y0141299D01*
X0157835Y0141298D01*
X0157940Y0141293D01*
X0158044Y0141284D01*
X0158148Y0141271D01*
X0158252Y0141254D01*
X0158355Y0141233D01*
X0158457Y0141208D01*
X0158558Y0141180D01*
X0158657Y0141147D01*
X0158756Y0141111D01*
X0158853Y0141071D01*
X0158948Y0141028D01*
X0159042Y0140980D01*
X0159134Y0140930D01*
X0159224Y0140876D01*
X0159312Y0140818D01*
X0159397Y0140757D01*
X0159480Y0140693D01*
X0159561Y0140626D01*
X0159639Y0140556D01*
X0159714Y0140482D01*
X0159786Y0140407D01*
X0159856Y0140328D01*
X0159922Y0140247D01*
X0159986Y0140163D01*
X0160046Y0140077D01*
X0160102Y0139989D01*
X0160156Y0139898D01*
X0160206Y0139806D01*
X0160252Y0139712D01*
X0160295Y0139616D01*
X0160334Y0139518D01*
X0160369Y0139420D01*
X0160400Y0139319D01*
X0160428Y0139218D01*
X0160452Y0139116D01*
X0160472Y0139013D01*
X0160488Y0138909D01*
X0160500Y0138805D01*
X0160508Y0138700D01*
X0160512Y0138595D01*
X0160512Y0138491D01*
X0160508Y0138386D01*
X0160500Y0138281D01*
X0160488Y0138177D01*
X0160472Y0138073D01*
X0160452Y0137970D01*
X0160428Y0137868D01*
X0160400Y0137767D01*
X0160369Y0137666D01*
X0160334Y0137568D01*
X0160295Y0137470D01*
X0160252Y0137374D01*
X0160206Y0137280D01*
X0160156Y0137188D01*
X0160102Y0137097D01*
X0160046Y0137009D01*
X0159986Y0136923D01*
X0159922Y0136839D01*
X0159856Y0136758D01*
X0159786Y0136679D01*
X0159714Y0136604D01*
X0159639Y0136530D01*
X0159561Y0136460D01*
X0159480Y0136393D01*
X0159397Y0136329D01*
X0159312Y0136268D01*
X0159224Y0136210D01*
X0159134Y0136156D01*
X0159042Y0136106D01*
X0158948Y0136058D01*
X0158853Y0136015D01*
X0158756Y0135975D01*
X0158657Y0135939D01*
X0158558Y0135906D01*
X0158457Y0135878D01*
X0158355Y0135853D01*
X0158252Y0135832D01*
X0158148Y0135815D01*
X0158044Y0135802D01*
X0157940Y0135793D01*
X0157835Y0135788D01*
X0157730Y0135787D01*
X0157625Y0135790D01*
X0157520Y0135797D01*
X0157416Y0135808D01*
X0157312Y0135823D01*
X0157209Y0135842D01*
X0157106Y0135865D01*
X0157005Y0135891D01*
X0156904Y0135922D01*
X0156805Y0135956D01*
X0156707Y0135994D01*
X0156611Y0136036D01*
X0156517Y0136081D01*
X0156424Y0136130D01*
X0156333Y0136183D01*
X0156244Y0136239D01*
X0156157Y0136298D01*
X0156073Y0136361D01*
X0155991Y0136426D01*
X0155912Y0136495D01*
X0155835Y0136567D01*
X0155761Y0136641D01*
X0155690Y0136718D01*
X0155622Y0136798D01*
X0155558Y0136881D01*
X0155496Y0136966D01*
X0155438Y0137053D01*
X0155382Y0137142D01*
X0155331Y0137234D01*
X0155283Y0137327D01*
X0155238Y0137422D01*
X0155197Y0137519D01*
X0155160Y0137617D01*
X0155127Y0137716D01*
X0155097Y0137817D01*
X0155072Y0137919D01*
X0155050Y0138021D01*
X0155032Y0138125D01*
X0155018Y0138229D01*
X0155008Y0138333D01*
X0155002Y0138438D01*
X0155000Y0138543D01*
X0155000Y0083425D02*
X0155002Y0083530D01*
X0155008Y0083635D01*
X0155018Y0083739D01*
X0155032Y0083843D01*
X0155050Y0083947D01*
X0155072Y0084049D01*
X0155097Y0084151D01*
X0155127Y0084252D01*
X0155160Y0084351D01*
X0155197Y0084449D01*
X0155238Y0084546D01*
X0155283Y0084641D01*
X0155331Y0084734D01*
X0155382Y0084826D01*
X0155438Y0084915D01*
X0155496Y0085002D01*
X0155558Y0085087D01*
X0155622Y0085170D01*
X0155690Y0085250D01*
X0155761Y0085327D01*
X0155835Y0085401D01*
X0155912Y0085473D01*
X0155991Y0085542D01*
X0156073Y0085607D01*
X0156157Y0085670D01*
X0156244Y0085729D01*
X0156333Y0085785D01*
X0156424Y0085838D01*
X0156517Y0085887D01*
X0156611Y0085932D01*
X0156707Y0085974D01*
X0156805Y0086012D01*
X0156904Y0086046D01*
X0157005Y0086077D01*
X0157106Y0086103D01*
X0157209Y0086126D01*
X0157312Y0086145D01*
X0157416Y0086160D01*
X0157520Y0086171D01*
X0157625Y0086178D01*
X0157730Y0086181D01*
X0157835Y0086180D01*
X0157940Y0086175D01*
X0158044Y0086166D01*
X0158148Y0086153D01*
X0158252Y0086136D01*
X0158355Y0086115D01*
X0158457Y0086090D01*
X0158558Y0086062D01*
X0158657Y0086029D01*
X0158756Y0085993D01*
X0158853Y0085953D01*
X0158948Y0085910D01*
X0159042Y0085862D01*
X0159134Y0085812D01*
X0159224Y0085758D01*
X0159312Y0085700D01*
X0159397Y0085639D01*
X0159480Y0085575D01*
X0159561Y0085508D01*
X0159639Y0085438D01*
X0159714Y0085364D01*
X0159786Y0085289D01*
X0159856Y0085210D01*
X0159922Y0085129D01*
X0159986Y0085045D01*
X0160046Y0084959D01*
X0160102Y0084871D01*
X0160156Y0084780D01*
X0160206Y0084688D01*
X0160252Y0084594D01*
X0160295Y0084498D01*
X0160334Y0084400D01*
X0160369Y0084302D01*
X0160400Y0084201D01*
X0160428Y0084100D01*
X0160452Y0083998D01*
X0160472Y0083895D01*
X0160488Y0083791D01*
X0160500Y0083687D01*
X0160508Y0083582D01*
X0160512Y0083477D01*
X0160512Y0083373D01*
X0160508Y0083268D01*
X0160500Y0083163D01*
X0160488Y0083059D01*
X0160472Y0082955D01*
X0160452Y0082852D01*
X0160428Y0082750D01*
X0160400Y0082649D01*
X0160369Y0082548D01*
X0160334Y0082450D01*
X0160295Y0082352D01*
X0160252Y0082256D01*
X0160206Y0082162D01*
X0160156Y0082070D01*
X0160102Y0081979D01*
X0160046Y0081891D01*
X0159986Y0081805D01*
X0159922Y0081721D01*
X0159856Y0081640D01*
X0159786Y0081561D01*
X0159714Y0081486D01*
X0159639Y0081412D01*
X0159561Y0081342D01*
X0159480Y0081275D01*
X0159397Y0081211D01*
X0159312Y0081150D01*
X0159224Y0081092D01*
X0159134Y0081038D01*
X0159042Y0080988D01*
X0158948Y0080940D01*
X0158853Y0080897D01*
X0158756Y0080857D01*
X0158657Y0080821D01*
X0158558Y0080788D01*
X0158457Y0080760D01*
X0158355Y0080735D01*
X0158252Y0080714D01*
X0158148Y0080697D01*
X0158044Y0080684D01*
X0157940Y0080675D01*
X0157835Y0080670D01*
X0157730Y0080669D01*
X0157625Y0080672D01*
X0157520Y0080679D01*
X0157416Y0080690D01*
X0157312Y0080705D01*
X0157209Y0080724D01*
X0157106Y0080747D01*
X0157005Y0080773D01*
X0156904Y0080804D01*
X0156805Y0080838D01*
X0156707Y0080876D01*
X0156611Y0080918D01*
X0156517Y0080963D01*
X0156424Y0081012D01*
X0156333Y0081065D01*
X0156244Y0081121D01*
X0156157Y0081180D01*
X0156073Y0081243D01*
X0155991Y0081308D01*
X0155912Y0081377D01*
X0155835Y0081449D01*
X0155761Y0081523D01*
X0155690Y0081600D01*
X0155622Y0081680D01*
X0155558Y0081763D01*
X0155496Y0081848D01*
X0155438Y0081935D01*
X0155382Y0082024D01*
X0155331Y0082116D01*
X0155283Y0082209D01*
X0155238Y0082304D01*
X0155197Y0082401D01*
X0155160Y0082499D01*
X0155127Y0082598D01*
X0155097Y0082699D01*
X0155072Y0082801D01*
X0155050Y0082903D01*
X0155032Y0083007D01*
X0155018Y0083111D01*
X0155008Y0083215D01*
X0155002Y0083320D01*
X0155000Y0083425D01*
D24*
X0026457Y0096732D03*
X0026457Y0105394D03*
X0019764Y0105394D03*
X0019764Y0096732D03*
X0020551Y0171535D03*
X0027244Y0171535D03*
X0027244Y0180197D03*
X0020551Y0180197D03*
D25*
X0019173Y0139646D03*
X0027047Y0139646D03*
X0034921Y0086102D03*
X0042795Y0086102D03*
X0049094Y0086102D03*
X0056969Y0086102D03*
X0056969Y0068780D03*
X0049094Y0068780D03*
X0042795Y0068780D03*
X0034921Y0068780D03*
X0042008Y0052244D03*
X0042008Y0044370D03*
X0042008Y0038071D03*
X0042008Y0030197D03*
X0049094Y0057756D03*
X0056969Y0057756D03*
X0149882Y0293189D03*
X0157756Y0293189D03*
D26*
X0157559Y0304016D03*
X0155000Y0304016D03*
X0160118Y0304016D03*
X0162677Y0304016D03*
X0165236Y0304016D03*
D27*
X0175866Y0314449D03*
X0144370Y0314449D03*
D28*
X0162776Y0218090D02*
X0171634Y0218090D01*
X0171634Y0209232D01*
X0162776Y0209232D01*
X0162776Y0218090D01*
X0162776Y0212184D02*
X0171634Y0212184D01*
X0171634Y0215136D02*
X0162776Y0215136D01*
X0162776Y0218088D02*
X0171634Y0218088D01*
D29*
X0170896Y0222175D02*
X0170896Y0224833D01*
X0171388Y0224833D01*
X0171388Y0222175D01*
X0170896Y0222175D01*
X0170896Y0222666D02*
X0171388Y0222666D01*
X0171388Y0223157D02*
X0170896Y0223157D01*
X0170896Y0223648D02*
X0171388Y0223648D01*
X0171388Y0224139D02*
X0170896Y0224139D01*
X0170896Y0224630D02*
X0171388Y0224630D01*
X0172864Y0224833D02*
X0172864Y0222175D01*
X0172864Y0224833D02*
X0173356Y0224833D01*
X0173356Y0222175D01*
X0172864Y0222175D01*
X0172864Y0222666D02*
X0173356Y0222666D01*
X0173356Y0223157D02*
X0172864Y0223157D01*
X0172864Y0223648D02*
X0173356Y0223648D01*
X0173356Y0224139D02*
X0172864Y0224139D01*
X0172864Y0224630D02*
X0173356Y0224630D01*
X0168927Y0224833D02*
X0168927Y0222175D01*
X0168927Y0224833D02*
X0169419Y0224833D01*
X0169419Y0222175D01*
X0168927Y0222175D01*
X0168927Y0222666D02*
X0169419Y0222666D01*
X0169419Y0223157D02*
X0168927Y0223157D01*
X0168927Y0223648D02*
X0169419Y0223648D01*
X0169419Y0224139D02*
X0168927Y0224139D01*
X0168927Y0224630D02*
X0169419Y0224630D01*
X0166959Y0224833D02*
X0166959Y0222175D01*
X0166959Y0224833D02*
X0167451Y0224833D01*
X0167451Y0222175D01*
X0166959Y0222175D01*
X0166959Y0222666D02*
X0167451Y0222666D01*
X0167451Y0223157D02*
X0166959Y0223157D01*
X0166959Y0223648D02*
X0167451Y0223648D01*
X0167451Y0224139D02*
X0166959Y0224139D01*
X0166959Y0224630D02*
X0167451Y0224630D01*
X0164990Y0224833D02*
X0164990Y0222175D01*
X0164990Y0224833D02*
X0165482Y0224833D01*
X0165482Y0222175D01*
X0164990Y0222175D01*
X0164990Y0222666D02*
X0165482Y0222666D01*
X0165482Y0223157D02*
X0164990Y0223157D01*
X0164990Y0223648D02*
X0165482Y0223648D01*
X0165482Y0224139D02*
X0164990Y0224139D01*
X0164990Y0224630D02*
X0165482Y0224630D01*
X0163022Y0224833D02*
X0163022Y0222175D01*
X0163022Y0224833D02*
X0163514Y0224833D01*
X0163514Y0222175D01*
X0163022Y0222175D01*
X0163022Y0222666D02*
X0163514Y0222666D01*
X0163514Y0223157D02*
X0163022Y0223157D01*
X0163022Y0223648D02*
X0163514Y0223648D01*
X0163514Y0224139D02*
X0163022Y0224139D01*
X0163022Y0224630D02*
X0163514Y0224630D01*
X0161053Y0224833D02*
X0161053Y0222175D01*
X0161053Y0224833D02*
X0161545Y0224833D01*
X0161545Y0222175D01*
X0161053Y0222175D01*
X0161053Y0222666D02*
X0161545Y0222666D01*
X0161545Y0223157D02*
X0161053Y0223157D01*
X0161053Y0223648D02*
X0161545Y0223648D01*
X0161545Y0224139D02*
X0161053Y0224139D01*
X0161053Y0224630D02*
X0161545Y0224630D01*
X0158691Y0219321D02*
X0156033Y0219321D01*
X0156033Y0219813D01*
X0158691Y0219813D01*
X0158691Y0219321D01*
X0158691Y0219812D02*
X0156033Y0219812D01*
X0156033Y0217352D02*
X0158691Y0217352D01*
X0156033Y0217352D02*
X0156033Y0217844D01*
X0158691Y0217844D01*
X0158691Y0217352D01*
X0158691Y0217843D02*
X0156033Y0217843D01*
X0156033Y0215384D02*
X0158691Y0215384D01*
X0156033Y0215384D02*
X0156033Y0215876D01*
X0158691Y0215876D01*
X0158691Y0215384D01*
X0158691Y0215875D02*
X0156033Y0215875D01*
X0156033Y0213415D02*
X0158691Y0213415D01*
X0156033Y0213415D02*
X0156033Y0213907D01*
X0158691Y0213907D01*
X0158691Y0213415D01*
X0158691Y0213906D02*
X0156033Y0213906D01*
X0156033Y0211939D02*
X0158691Y0211939D01*
X0158691Y0211447D01*
X0156033Y0211447D01*
X0156033Y0211939D01*
X0156033Y0211938D02*
X0158691Y0211938D01*
X0158691Y0209970D02*
X0156033Y0209970D01*
X0158691Y0209970D02*
X0158691Y0209478D01*
X0156033Y0209478D01*
X0156033Y0209970D01*
X0156033Y0209969D02*
X0158691Y0209969D01*
X0158691Y0208002D02*
X0156033Y0208002D01*
X0158691Y0208002D02*
X0158691Y0207510D01*
X0156033Y0207510D01*
X0156033Y0208002D01*
X0156033Y0208001D02*
X0158691Y0208001D01*
X0161545Y0205148D02*
X0161545Y0202490D01*
X0161053Y0202490D01*
X0161053Y0205148D01*
X0161545Y0205148D01*
X0161545Y0202981D02*
X0161053Y0202981D01*
X0161053Y0203472D02*
X0161545Y0203472D01*
X0161545Y0203963D02*
X0161053Y0203963D01*
X0161053Y0204454D02*
X0161545Y0204454D01*
X0161545Y0204945D02*
X0161053Y0204945D01*
X0163514Y0205148D02*
X0163514Y0202490D01*
X0163022Y0202490D01*
X0163022Y0205148D01*
X0163514Y0205148D01*
X0163514Y0202981D02*
X0163022Y0202981D01*
X0163022Y0203472D02*
X0163514Y0203472D01*
X0163514Y0203963D02*
X0163022Y0203963D01*
X0163022Y0204454D02*
X0163514Y0204454D01*
X0163514Y0204945D02*
X0163022Y0204945D01*
X0165482Y0205148D02*
X0165482Y0202490D01*
X0164990Y0202490D01*
X0164990Y0205148D01*
X0165482Y0205148D01*
X0165482Y0202981D02*
X0164990Y0202981D01*
X0164990Y0203472D02*
X0165482Y0203472D01*
X0165482Y0203963D02*
X0164990Y0203963D01*
X0164990Y0204454D02*
X0165482Y0204454D01*
X0165482Y0204945D02*
X0164990Y0204945D01*
X0167451Y0205148D02*
X0167451Y0202490D01*
X0166959Y0202490D01*
X0166959Y0205148D01*
X0167451Y0205148D01*
X0167451Y0202981D02*
X0166959Y0202981D01*
X0166959Y0203472D02*
X0167451Y0203472D01*
X0167451Y0203963D02*
X0166959Y0203963D01*
X0166959Y0204454D02*
X0167451Y0204454D01*
X0167451Y0204945D02*
X0166959Y0204945D01*
X0169419Y0205148D02*
X0169419Y0202490D01*
X0168927Y0202490D01*
X0168927Y0205148D01*
X0169419Y0205148D01*
X0169419Y0202981D02*
X0168927Y0202981D01*
X0168927Y0203472D02*
X0169419Y0203472D01*
X0169419Y0203963D02*
X0168927Y0203963D01*
X0168927Y0204454D02*
X0169419Y0204454D01*
X0169419Y0204945D02*
X0168927Y0204945D01*
X0171388Y0205148D02*
X0171388Y0202490D01*
X0170896Y0202490D01*
X0170896Y0205148D01*
X0171388Y0205148D01*
X0171388Y0202981D02*
X0170896Y0202981D01*
X0170896Y0203472D02*
X0171388Y0203472D01*
X0171388Y0203963D02*
X0170896Y0203963D01*
X0170896Y0204454D02*
X0171388Y0204454D01*
X0171388Y0204945D02*
X0170896Y0204945D01*
X0173356Y0205148D02*
X0173356Y0202490D01*
X0172864Y0202490D01*
X0172864Y0205148D01*
X0173356Y0205148D01*
X0173356Y0202981D02*
X0172864Y0202981D01*
X0172864Y0203472D02*
X0173356Y0203472D01*
X0173356Y0203963D02*
X0172864Y0203963D01*
X0172864Y0204454D02*
X0173356Y0204454D01*
X0173356Y0204945D02*
X0172864Y0204945D01*
X0175718Y0208002D02*
X0178376Y0208002D01*
X0178376Y0207510D01*
X0175718Y0207510D01*
X0175718Y0208002D01*
X0175718Y0208001D02*
X0178376Y0208001D01*
X0178376Y0209970D02*
X0175718Y0209970D01*
X0178376Y0209970D02*
X0178376Y0209478D01*
X0175718Y0209478D01*
X0175718Y0209970D01*
X0175718Y0209969D02*
X0178376Y0209969D01*
X0178376Y0211939D02*
X0175718Y0211939D01*
X0178376Y0211939D02*
X0178376Y0211447D01*
X0175718Y0211447D01*
X0175718Y0211939D01*
X0175718Y0211938D02*
X0178376Y0211938D01*
X0178376Y0213907D02*
X0175718Y0213907D01*
X0178376Y0213907D02*
X0178376Y0213415D01*
X0175718Y0213415D01*
X0175718Y0213907D01*
X0175718Y0213906D02*
X0178376Y0213906D01*
X0178376Y0215876D02*
X0175718Y0215876D01*
X0178376Y0215876D02*
X0178376Y0215384D01*
X0175718Y0215384D01*
X0175718Y0215876D01*
X0175718Y0215875D02*
X0178376Y0215875D01*
X0178376Y0217844D02*
X0175718Y0217844D01*
X0178376Y0217844D02*
X0178376Y0217352D01*
X0175718Y0217352D01*
X0175718Y0217844D01*
X0175718Y0217843D02*
X0178376Y0217843D01*
X0178376Y0219813D02*
X0175718Y0219813D01*
X0178376Y0219813D02*
X0178376Y0219321D01*
X0175718Y0219321D01*
X0175718Y0219813D01*
X0175718Y0219812D02*
X0178376Y0219812D01*
D30*
X0135709Y0097913D02*
X0135709Y0090827D01*
X0131378Y0090827D02*
X0131378Y0097913D01*
X0127047Y0097913D02*
X0127047Y0090827D01*
X0122717Y0090827D02*
X0122717Y0097913D01*
X0118386Y0097913D02*
X0118386Y0090827D01*
X0114055Y0090827D02*
X0114055Y0097913D01*
X0109724Y0097913D02*
X0109724Y0090827D01*
X0105394Y0090827D02*
X0105394Y0097913D01*
X0101063Y0097913D02*
X0101063Y0090827D01*
X0096732Y0090827D02*
X0096732Y0097913D01*
X0092402Y0097913D02*
X0092402Y0090827D01*
X0088071Y0090827D02*
X0088071Y0097913D01*
X0083740Y0097913D02*
X0083740Y0090827D01*
X0078622Y0081378D02*
X0071536Y0081378D01*
X0071536Y0077047D02*
X0078622Y0077047D01*
X0078622Y0072717D02*
X0071536Y0072717D01*
X0071536Y0068386D02*
X0078622Y0068386D01*
X0078622Y0064055D02*
X0071536Y0064055D01*
X0071536Y0059724D02*
X0078622Y0059724D01*
X0078622Y0055394D02*
X0071536Y0055394D01*
X0071536Y0051063D02*
X0078622Y0051063D01*
X0078622Y0046732D02*
X0071536Y0046732D01*
X0083740Y0037283D02*
X0083740Y0030197D01*
X0088071Y0030197D02*
X0088071Y0037283D01*
X0092402Y0037283D02*
X0092402Y0030197D01*
X0096732Y0030197D02*
X0096732Y0037283D01*
X0101063Y0037283D02*
X0101063Y0030197D01*
X0105394Y0030197D02*
X0105394Y0037283D01*
X0109724Y0037283D02*
X0109724Y0030197D01*
X0114055Y0030197D02*
X0114055Y0037283D01*
X0118386Y0037283D02*
X0118386Y0030197D01*
X0122717Y0030197D02*
X0122717Y0037283D01*
X0127047Y0037283D02*
X0127047Y0030197D01*
X0131378Y0030197D02*
X0131378Y0037283D01*
X0135709Y0037283D02*
X0135709Y0030197D01*
X0140827Y0046732D02*
X0147913Y0046732D01*
X0147913Y0051063D02*
X0140827Y0051063D01*
X0140827Y0055394D02*
X0147913Y0055394D01*
X0147913Y0059724D02*
X0140827Y0059724D01*
X0140827Y0064055D02*
X0147913Y0064055D01*
X0147913Y0068386D02*
X0140827Y0068386D01*
X0140827Y0072717D02*
X0147913Y0072717D01*
X0147913Y0077047D02*
X0140827Y0077047D01*
X0140827Y0081378D02*
X0147913Y0081378D01*
D31*
X0164843Y0064843D03*
X0183740Y0064843D03*
X0183740Y0101063D03*
X0164843Y0101063D03*
D32*
X0130984Y0111693D03*
X0130984Y0126654D03*
D33*
X0122913Y0116417D03*
X0115433Y0116417D03*
X0119173Y0107756D03*
X0095354Y0120354D03*
X0087874Y0120354D03*
X0080394Y0117992D03*
X0072913Y0117992D03*
X0076654Y0126654D03*
X0091614Y0129016D03*
X0156378Y0033740D03*
X0163858Y0033740D03*
X0169764Y0033740D03*
X0177244Y0033740D03*
X0173504Y0025079D03*
X0160118Y0025079D03*
D34*
X0155039Y0121378D02*
X0149449Y0121378D01*
X0155039Y0121378D02*
X0155039Y0118544D01*
X0149449Y0118544D01*
X0149449Y0121378D01*
X0149449Y0119252D02*
X0155039Y0119252D01*
X0155039Y0119960D02*
X0149449Y0119960D01*
X0149449Y0120668D02*
X0155039Y0120668D01*
X0155039Y0121376D02*
X0149449Y0121376D01*
D35*
X0140433Y0124685D03*
X0140433Y0113661D03*
X0049882Y0274291D03*
X0049882Y0285315D03*
X0038858Y0285315D03*
X0038858Y0274291D03*
D36*
X0099488Y0267205D03*
X0110512Y0267205D03*
X0177441Y0119961D03*
X0188465Y0119961D03*
D37*
X0152244Y0110512D03*
X0152244Y0101063D03*
D38*
X0049016Y0098779D02*
X0049016Y0106497D01*
X0049016Y0098779D02*
X0041298Y0098779D01*
X0041298Y0106497D01*
X0049016Y0106497D01*
X0049016Y0102085D02*
X0041298Y0102085D01*
X0041298Y0105391D02*
X0049016Y0105391D01*
D39*
X0051831Y0105019D02*
X0055413Y0105019D01*
X0055413Y0104193D01*
X0051831Y0104193D01*
X0051831Y0105019D01*
X0051831Y0104546D02*
X0055413Y0104546D01*
X0055413Y0104899D02*
X0051831Y0104899D01*
X0051831Y0106988D02*
X0055413Y0106988D01*
X0055413Y0106162D01*
X0051831Y0106162D01*
X0051831Y0106988D01*
X0051831Y0106515D02*
X0055413Y0106515D01*
X0055413Y0106868D02*
X0051831Y0106868D01*
X0051831Y0103051D02*
X0055413Y0103051D01*
X0055413Y0102225D01*
X0051831Y0102225D01*
X0051831Y0103051D01*
X0051831Y0102578D02*
X0055413Y0102578D01*
X0055413Y0102931D02*
X0051831Y0102931D01*
X0051831Y0101082D02*
X0055413Y0101082D01*
X0055413Y0100256D01*
X0051831Y0100256D01*
X0051831Y0101082D01*
X0051831Y0100609D02*
X0055413Y0100609D01*
X0055413Y0100962D02*
X0051831Y0100962D01*
X0051831Y0099114D02*
X0055413Y0099114D01*
X0055413Y0098288D01*
X0051831Y0098288D01*
X0051831Y0099114D01*
X0051831Y0098641D02*
X0055413Y0098641D01*
X0055413Y0098994D02*
X0051831Y0098994D01*
X0049507Y0095964D02*
X0049507Y0092382D01*
X0048681Y0092382D01*
X0048681Y0095964D01*
X0049507Y0095964D01*
X0049507Y0092735D02*
X0048681Y0092735D01*
X0048681Y0093088D02*
X0049507Y0093088D01*
X0049507Y0093441D02*
X0048681Y0093441D01*
X0048681Y0093794D02*
X0049507Y0093794D01*
X0049507Y0094147D02*
X0048681Y0094147D01*
X0048681Y0094500D02*
X0049507Y0094500D01*
X0049507Y0094853D02*
X0048681Y0094853D01*
X0048681Y0095206D02*
X0049507Y0095206D01*
X0049507Y0095559D02*
X0048681Y0095559D01*
X0048681Y0095912D02*
X0049507Y0095912D01*
X0047539Y0095964D02*
X0047539Y0092382D01*
X0046713Y0092382D01*
X0046713Y0095964D01*
X0047539Y0095964D01*
X0047539Y0092735D02*
X0046713Y0092735D01*
X0046713Y0093088D02*
X0047539Y0093088D01*
X0047539Y0093441D02*
X0046713Y0093441D01*
X0046713Y0093794D02*
X0047539Y0093794D01*
X0047539Y0094147D02*
X0046713Y0094147D01*
X0046713Y0094500D02*
X0047539Y0094500D01*
X0047539Y0094853D02*
X0046713Y0094853D01*
X0046713Y0095206D02*
X0047539Y0095206D01*
X0047539Y0095559D02*
X0046713Y0095559D01*
X0046713Y0095912D02*
X0047539Y0095912D01*
X0045570Y0095964D02*
X0045570Y0092382D01*
X0044744Y0092382D01*
X0044744Y0095964D01*
X0045570Y0095964D01*
X0045570Y0092735D02*
X0044744Y0092735D01*
X0044744Y0093088D02*
X0045570Y0093088D01*
X0045570Y0093441D02*
X0044744Y0093441D01*
X0044744Y0093794D02*
X0045570Y0093794D01*
X0045570Y0094147D02*
X0044744Y0094147D01*
X0044744Y0094500D02*
X0045570Y0094500D01*
X0045570Y0094853D02*
X0044744Y0094853D01*
X0044744Y0095206D02*
X0045570Y0095206D01*
X0045570Y0095559D02*
X0044744Y0095559D01*
X0044744Y0095912D02*
X0045570Y0095912D01*
X0043602Y0095964D02*
X0043602Y0092382D01*
X0042776Y0092382D01*
X0042776Y0095964D01*
X0043602Y0095964D01*
X0043602Y0092735D02*
X0042776Y0092735D01*
X0042776Y0093088D02*
X0043602Y0093088D01*
X0043602Y0093441D02*
X0042776Y0093441D01*
X0042776Y0093794D02*
X0043602Y0093794D01*
X0043602Y0094147D02*
X0042776Y0094147D01*
X0042776Y0094500D02*
X0043602Y0094500D01*
X0043602Y0094853D02*
X0042776Y0094853D01*
X0042776Y0095206D02*
X0043602Y0095206D01*
X0043602Y0095559D02*
X0042776Y0095559D01*
X0042776Y0095912D02*
X0043602Y0095912D01*
X0041633Y0095964D02*
X0041633Y0092382D01*
X0040807Y0092382D01*
X0040807Y0095964D01*
X0041633Y0095964D01*
X0041633Y0092735D02*
X0040807Y0092735D01*
X0040807Y0093088D02*
X0041633Y0093088D01*
X0041633Y0093441D02*
X0040807Y0093441D01*
X0040807Y0093794D02*
X0041633Y0093794D01*
X0041633Y0094147D02*
X0040807Y0094147D01*
X0040807Y0094500D02*
X0041633Y0094500D01*
X0041633Y0094853D02*
X0040807Y0094853D01*
X0040807Y0095206D02*
X0041633Y0095206D01*
X0041633Y0095559D02*
X0040807Y0095559D01*
X0040807Y0095912D02*
X0041633Y0095912D01*
X0038484Y0098288D02*
X0034902Y0098288D01*
X0034902Y0099114D01*
X0038484Y0099114D01*
X0038484Y0098288D01*
X0038484Y0098641D02*
X0034902Y0098641D01*
X0034902Y0098994D02*
X0038484Y0098994D01*
X0038484Y0100256D02*
X0034902Y0100256D01*
X0034902Y0101082D01*
X0038484Y0101082D01*
X0038484Y0100256D01*
X0038484Y0100609D02*
X0034902Y0100609D01*
X0034902Y0100962D02*
X0038484Y0100962D01*
X0038484Y0102225D02*
X0034902Y0102225D01*
X0034902Y0103051D01*
X0038484Y0103051D01*
X0038484Y0102225D01*
X0038484Y0102578D02*
X0034902Y0102578D01*
X0034902Y0102931D02*
X0038484Y0102931D01*
X0038484Y0104193D02*
X0034902Y0104193D01*
X0034902Y0105019D01*
X0038484Y0105019D01*
X0038484Y0104193D01*
X0038484Y0104546D02*
X0034902Y0104546D01*
X0034902Y0104899D02*
X0038484Y0104899D01*
X0038484Y0106162D02*
X0034902Y0106162D01*
X0034902Y0106988D01*
X0038484Y0106988D01*
X0038484Y0106162D01*
X0038484Y0106515D02*
X0034902Y0106515D01*
X0034902Y0106868D02*
X0038484Y0106868D01*
X0040807Y0109311D02*
X0040807Y0112893D01*
X0041633Y0112893D01*
X0041633Y0109311D01*
X0040807Y0109311D01*
X0040807Y0109664D02*
X0041633Y0109664D01*
X0041633Y0110017D02*
X0040807Y0110017D01*
X0040807Y0110370D02*
X0041633Y0110370D01*
X0041633Y0110723D02*
X0040807Y0110723D01*
X0040807Y0111076D02*
X0041633Y0111076D01*
X0041633Y0111429D02*
X0040807Y0111429D01*
X0040807Y0111782D02*
X0041633Y0111782D01*
X0041633Y0112135D02*
X0040807Y0112135D01*
X0040807Y0112488D02*
X0041633Y0112488D01*
X0041633Y0112841D02*
X0040807Y0112841D01*
X0042776Y0112893D02*
X0042776Y0109311D01*
X0042776Y0112893D02*
X0043602Y0112893D01*
X0043602Y0109311D01*
X0042776Y0109311D01*
X0042776Y0109664D02*
X0043602Y0109664D01*
X0043602Y0110017D02*
X0042776Y0110017D01*
X0042776Y0110370D02*
X0043602Y0110370D01*
X0043602Y0110723D02*
X0042776Y0110723D01*
X0042776Y0111076D02*
X0043602Y0111076D01*
X0043602Y0111429D02*
X0042776Y0111429D01*
X0042776Y0111782D02*
X0043602Y0111782D01*
X0043602Y0112135D02*
X0042776Y0112135D01*
X0042776Y0112488D02*
X0043602Y0112488D01*
X0043602Y0112841D02*
X0042776Y0112841D01*
X0044744Y0112893D02*
X0044744Y0109311D01*
X0044744Y0112893D02*
X0045570Y0112893D01*
X0045570Y0109311D01*
X0044744Y0109311D01*
X0044744Y0109664D02*
X0045570Y0109664D01*
X0045570Y0110017D02*
X0044744Y0110017D01*
X0044744Y0110370D02*
X0045570Y0110370D01*
X0045570Y0110723D02*
X0044744Y0110723D01*
X0044744Y0111076D02*
X0045570Y0111076D01*
X0045570Y0111429D02*
X0044744Y0111429D01*
X0044744Y0111782D02*
X0045570Y0111782D01*
X0045570Y0112135D02*
X0044744Y0112135D01*
X0044744Y0112488D02*
X0045570Y0112488D01*
X0045570Y0112841D02*
X0044744Y0112841D01*
X0046713Y0112893D02*
X0046713Y0109311D01*
X0046713Y0112893D02*
X0047539Y0112893D01*
X0047539Y0109311D01*
X0046713Y0109311D01*
X0046713Y0109664D02*
X0047539Y0109664D01*
X0047539Y0110017D02*
X0046713Y0110017D01*
X0046713Y0110370D02*
X0047539Y0110370D01*
X0047539Y0110723D02*
X0046713Y0110723D01*
X0046713Y0111076D02*
X0047539Y0111076D01*
X0047539Y0111429D02*
X0046713Y0111429D01*
X0046713Y0111782D02*
X0047539Y0111782D01*
X0047539Y0112135D02*
X0046713Y0112135D01*
X0046713Y0112488D02*
X0047539Y0112488D01*
X0047539Y0112841D02*
X0046713Y0112841D01*
X0048681Y0112893D02*
X0048681Y0109311D01*
X0048681Y0112893D02*
X0049507Y0112893D01*
X0049507Y0109311D01*
X0048681Y0109311D01*
X0048681Y0109664D02*
X0049507Y0109664D01*
X0049507Y0110017D02*
X0048681Y0110017D01*
X0048681Y0110370D02*
X0049507Y0110370D01*
X0049507Y0110723D02*
X0048681Y0110723D01*
X0048681Y0111076D02*
X0049507Y0111076D01*
X0049507Y0111429D02*
X0048681Y0111429D01*
X0048681Y0111782D02*
X0049507Y0111782D01*
X0049507Y0112135D02*
X0048681Y0112135D01*
X0048681Y0112488D02*
X0049507Y0112488D01*
X0049507Y0112841D02*
X0048681Y0112841D01*
D40*
X0111299Y0163504D03*
X0111299Y0168504D03*
X0111299Y0173504D03*
X0111299Y0178504D03*
X0111299Y0183504D03*
X0127047Y0183504D03*
X0127047Y0173504D03*
X0127047Y0168504D03*
X0127047Y0163504D03*
D41*
X0080729Y0294527D02*
X0072579Y0294527D01*
X0072579Y0299725D01*
X0080729Y0299725D01*
X0080729Y0294527D01*
X0080729Y0295825D02*
X0072579Y0295825D01*
X0072579Y0297123D02*
X0080729Y0297123D01*
X0080729Y0298421D02*
X0072579Y0298421D01*
X0072579Y0299719D02*
X0080729Y0299719D01*
D42*
X0023898Y0284528D03*
X0023898Y0267205D03*
D43*
X0107362Y0276260D03*
X0107362Y0295945D03*
D44*
X0132584Y0282239D02*
X0140408Y0282239D01*
X0140408Y0277367D01*
X0132584Y0277367D01*
X0132584Y0282239D01*
X0132584Y0278990D02*
X0140408Y0278990D01*
X0140408Y0280613D02*
X0132584Y0280613D01*
X0132584Y0282236D02*
X0140408Y0282236D01*
D45*
X0140433Y0284626D02*
X0140433Y0287578D01*
X0138465Y0287578D02*
X0138465Y0284626D01*
X0136496Y0284626D02*
X0136496Y0287578D01*
X0134528Y0287578D02*
X0134528Y0284626D01*
X0132559Y0284626D02*
X0132559Y0287578D01*
X0132559Y0274980D02*
X0132559Y0272028D01*
X0134528Y0272028D02*
X0134528Y0274980D01*
X0136496Y0274980D02*
X0136496Y0272028D01*
X0138465Y0272028D02*
X0138465Y0274980D01*
X0140433Y0274980D02*
X0140433Y0272028D01*
M02*
