G75*
%MOIN*%
%OFA0B0*%
%FSLAX25Y25*%
%IPPOS*%
%LPD*%
%AMOC8*
5,1,8,0,0,1.08239X$1,22.5*
%
%ADD10R,0.07874X0.09449*%
%ADD11R,0.21660X0.21660*%
%ADD12C,0.00791*%
%ADD13R,0.09061X0.02762*%
%ADD14R,0.04731X0.04337*%
%ADD15R,0.03943X0.02762*%
%ADD16R,0.05518X0.06306*%
%ADD17R,0.06306X0.05518*%
%ADD18R,0.04337X0.04731*%
%ADD19R,0.05912X0.09849*%
%ADD20R,0.05124X0.05124*%
%ADD21C,0.00500*%
%ADD22C,0.18117*%
%ADD23R,0.06306X0.03550*%
%ADD24R,0.10243X0.05124*%
%ADD25C,0.00000*%
%ADD26C,0.06699*%
%ADD27R,0.05124X0.05912*%
%ADD28R,0.04337X0.04337*%
%ADD29C,0.05200*%
%ADD30R,0.01778X0.05912*%
%ADD31R,0.07487X0.07880*%
%ADD32C,0.03053*%
%ADD33C,0.00692*%
%ADD34C,0.03156*%
%ADD35R,0.12211X0.05912*%
%ADD36R,0.05912X0.05912*%
%ADD37R,0.04337X0.05912*%
%ADD38C,0.05912*%
%ADD39C,0.00789*%
%ADD40R,0.07487X0.06699*%
%ADD41R,0.06699X0.07487*%
%ADD42R,0.09849X0.05912*%
%ADD43C,0.06306*%
%ADD44C,0.03427*%
%ADD45C,0.00474*%
%ADD46R,0.12211X0.03550*%
%ADD47C,0.06400*%
%ADD48C,0.01379*%
%ADD49C,0.07093*%
%ADD50R,0.09849X0.09849*%
%ADD51R,0.16148X0.07487*%
%ADD52C,0.06896*%
%ADD53C,0.01724*%
%ADD54C,0.01384*%
D10*
X0144370Y0305000D03*
X0175866Y0305000D03*
D11*
X0054606Y0168780D03*
D12*
X0053227Y0181179D02*
X0053227Y0183939D01*
X0054017Y0183939D01*
X0054017Y0181179D01*
X0053227Y0181179D01*
X0053227Y0181969D02*
X0054017Y0181969D01*
X0054017Y0182759D02*
X0053227Y0182759D01*
X0053227Y0183549D02*
X0054017Y0183549D01*
X0055196Y0183939D02*
X0055196Y0181179D01*
X0055196Y0183939D02*
X0055986Y0183939D01*
X0055986Y0181179D01*
X0055196Y0181179D01*
X0055196Y0181969D02*
X0055986Y0181969D01*
X0055986Y0182759D02*
X0055196Y0182759D01*
X0055196Y0183549D02*
X0055986Y0183549D01*
X0057164Y0183939D02*
X0057164Y0181179D01*
X0057164Y0183939D02*
X0057954Y0183939D01*
X0057954Y0181179D01*
X0057164Y0181179D01*
X0057164Y0181969D02*
X0057954Y0181969D01*
X0057954Y0182759D02*
X0057164Y0182759D01*
X0057164Y0183549D02*
X0057954Y0183549D01*
X0059133Y0183939D02*
X0059133Y0181179D01*
X0059133Y0183939D02*
X0059923Y0183939D01*
X0059923Y0181179D01*
X0059133Y0181179D01*
X0059133Y0181969D02*
X0059923Y0181969D01*
X0059923Y0182759D02*
X0059133Y0182759D01*
X0059133Y0183549D02*
X0059923Y0183549D01*
X0061101Y0183939D02*
X0061101Y0181179D01*
X0061101Y0183939D02*
X0061891Y0183939D01*
X0061891Y0181179D01*
X0061101Y0181179D01*
X0061101Y0181969D02*
X0061891Y0181969D01*
X0061891Y0182759D02*
X0061101Y0182759D01*
X0061101Y0183549D02*
X0061891Y0183549D01*
X0063070Y0183939D02*
X0063070Y0181179D01*
X0063070Y0183939D02*
X0063860Y0183939D01*
X0063860Y0181179D01*
X0063070Y0181179D01*
X0063070Y0181969D02*
X0063860Y0181969D01*
X0063860Y0182759D02*
X0063070Y0182759D01*
X0063070Y0183549D02*
X0063860Y0183549D01*
X0065038Y0183939D02*
X0065038Y0181179D01*
X0065038Y0183939D02*
X0065828Y0183939D01*
X0065828Y0181179D01*
X0065038Y0181179D01*
X0065038Y0181969D02*
X0065828Y0181969D01*
X0065828Y0182759D02*
X0065038Y0182759D01*
X0065038Y0183549D02*
X0065828Y0183549D01*
X0067006Y0180001D02*
X0069766Y0180001D01*
X0069766Y0179211D01*
X0067006Y0179211D01*
X0067006Y0180001D01*
X0069766Y0180001D01*
X0069766Y0178033D02*
X0067006Y0178033D01*
X0069766Y0178033D02*
X0069766Y0177243D01*
X0067006Y0177243D01*
X0067006Y0178033D01*
X0069766Y0178033D01*
X0069766Y0176064D02*
X0067006Y0176064D01*
X0069766Y0176064D02*
X0069766Y0175274D01*
X0067006Y0175274D01*
X0067006Y0176064D01*
X0069766Y0176064D01*
X0069766Y0174096D02*
X0067006Y0174096D01*
X0069766Y0174096D02*
X0069766Y0173306D01*
X0067006Y0173306D01*
X0067006Y0174096D01*
X0069766Y0174096D01*
X0069766Y0172127D02*
X0067006Y0172127D01*
X0069766Y0172127D02*
X0069766Y0171337D01*
X0067006Y0171337D01*
X0067006Y0172127D01*
X0069766Y0172127D01*
X0069766Y0170159D02*
X0067006Y0170159D01*
X0069766Y0170159D02*
X0069766Y0169369D01*
X0067006Y0169369D01*
X0067006Y0170159D01*
X0069766Y0170159D01*
X0069766Y0168190D02*
X0067006Y0168190D01*
X0069766Y0168190D02*
X0069766Y0167400D01*
X0067006Y0167400D01*
X0067006Y0168190D01*
X0069766Y0168190D01*
X0069766Y0166222D02*
X0067006Y0166222D01*
X0069766Y0166222D02*
X0069766Y0165432D01*
X0067006Y0165432D01*
X0067006Y0166222D01*
X0069766Y0166222D01*
X0069766Y0164253D02*
X0067006Y0164253D01*
X0069766Y0164253D02*
X0069766Y0163463D01*
X0067006Y0163463D01*
X0067006Y0164253D01*
X0069766Y0164253D01*
X0069766Y0162285D02*
X0067006Y0162285D01*
X0069766Y0162285D02*
X0069766Y0161495D01*
X0067006Y0161495D01*
X0067006Y0162285D01*
X0069766Y0162285D01*
X0069766Y0160316D02*
X0067006Y0160316D01*
X0069766Y0160316D02*
X0069766Y0159526D01*
X0067006Y0159526D01*
X0067006Y0160316D01*
X0069766Y0160316D01*
X0069766Y0158348D02*
X0067006Y0158348D01*
X0069766Y0158348D02*
X0069766Y0157558D01*
X0067006Y0157558D01*
X0067006Y0158348D01*
X0069766Y0158348D01*
X0065828Y0156380D02*
X0065828Y0153620D01*
X0065038Y0153620D01*
X0065038Y0156380D01*
X0065828Y0156380D01*
X0065828Y0154410D02*
X0065038Y0154410D01*
X0065038Y0155200D02*
X0065828Y0155200D01*
X0065828Y0155990D02*
X0065038Y0155990D01*
X0063860Y0156380D02*
X0063860Y0153620D01*
X0063070Y0153620D01*
X0063070Y0156380D01*
X0063860Y0156380D01*
X0063860Y0154410D02*
X0063070Y0154410D01*
X0063070Y0155200D02*
X0063860Y0155200D01*
X0063860Y0155990D02*
X0063070Y0155990D01*
X0061891Y0156380D02*
X0061891Y0153620D01*
X0061101Y0153620D01*
X0061101Y0156380D01*
X0061891Y0156380D01*
X0061891Y0154410D02*
X0061101Y0154410D01*
X0061101Y0155200D02*
X0061891Y0155200D01*
X0061891Y0155990D02*
X0061101Y0155990D01*
X0059923Y0156380D02*
X0059923Y0153620D01*
X0059133Y0153620D01*
X0059133Y0156380D01*
X0059923Y0156380D01*
X0059923Y0154410D02*
X0059133Y0154410D01*
X0059133Y0155200D02*
X0059923Y0155200D01*
X0059923Y0155990D02*
X0059133Y0155990D01*
X0057954Y0156380D02*
X0057954Y0153620D01*
X0057164Y0153620D01*
X0057164Y0156380D01*
X0057954Y0156380D01*
X0057954Y0154410D02*
X0057164Y0154410D01*
X0057164Y0155200D02*
X0057954Y0155200D01*
X0057954Y0155990D02*
X0057164Y0155990D01*
X0055986Y0156380D02*
X0055986Y0153620D01*
X0055196Y0153620D01*
X0055196Y0156380D01*
X0055986Y0156380D01*
X0055986Y0154410D02*
X0055196Y0154410D01*
X0055196Y0155200D02*
X0055986Y0155200D01*
X0055986Y0155990D02*
X0055196Y0155990D01*
X0054017Y0156380D02*
X0054017Y0153620D01*
X0053227Y0153620D01*
X0053227Y0156380D01*
X0054017Y0156380D01*
X0054017Y0154410D02*
X0053227Y0154410D01*
X0053227Y0155200D02*
X0054017Y0155200D01*
X0054017Y0155990D02*
X0053227Y0155990D01*
X0052049Y0156380D02*
X0052049Y0153620D01*
X0051259Y0153620D01*
X0051259Y0156380D01*
X0052049Y0156380D01*
X0052049Y0154410D02*
X0051259Y0154410D01*
X0051259Y0155200D02*
X0052049Y0155200D01*
X0052049Y0155990D02*
X0051259Y0155990D01*
X0050080Y0156380D02*
X0050080Y0153620D01*
X0049290Y0153620D01*
X0049290Y0156380D01*
X0050080Y0156380D01*
X0050080Y0154410D02*
X0049290Y0154410D01*
X0049290Y0155200D02*
X0050080Y0155200D01*
X0050080Y0155990D02*
X0049290Y0155990D01*
X0048112Y0156380D02*
X0048112Y0153620D01*
X0047322Y0153620D01*
X0047322Y0156380D01*
X0048112Y0156380D01*
X0048112Y0154410D02*
X0047322Y0154410D01*
X0047322Y0155200D02*
X0048112Y0155200D01*
X0048112Y0155990D02*
X0047322Y0155990D01*
X0046143Y0156380D02*
X0046143Y0153620D01*
X0045353Y0153620D01*
X0045353Y0156380D01*
X0046143Y0156380D01*
X0046143Y0154410D02*
X0045353Y0154410D01*
X0045353Y0155200D02*
X0046143Y0155200D01*
X0046143Y0155990D02*
X0045353Y0155990D01*
X0044175Y0156380D02*
X0044175Y0153620D01*
X0043385Y0153620D01*
X0043385Y0156380D01*
X0044175Y0156380D01*
X0044175Y0154410D02*
X0043385Y0154410D01*
X0043385Y0155200D02*
X0044175Y0155200D01*
X0044175Y0155990D02*
X0043385Y0155990D01*
X0042207Y0157558D02*
X0039447Y0157558D01*
X0039447Y0158348D01*
X0042207Y0158348D01*
X0042207Y0157558D01*
X0042207Y0158348D02*
X0039447Y0158348D01*
X0039447Y0159526D02*
X0042207Y0159526D01*
X0039447Y0159526D02*
X0039447Y0160316D01*
X0042207Y0160316D01*
X0042207Y0159526D01*
X0042207Y0160316D02*
X0039447Y0160316D01*
X0039447Y0161495D02*
X0042207Y0161495D01*
X0039447Y0161495D02*
X0039447Y0162285D01*
X0042207Y0162285D01*
X0042207Y0161495D01*
X0042207Y0162285D02*
X0039447Y0162285D01*
X0039447Y0163463D02*
X0042207Y0163463D01*
X0039447Y0163463D02*
X0039447Y0164253D01*
X0042207Y0164253D01*
X0042207Y0163463D01*
X0042207Y0164253D02*
X0039447Y0164253D01*
X0039447Y0165432D02*
X0042207Y0165432D01*
X0039447Y0165432D02*
X0039447Y0166222D01*
X0042207Y0166222D01*
X0042207Y0165432D01*
X0042207Y0166222D02*
X0039447Y0166222D01*
X0039447Y0167400D02*
X0042207Y0167400D01*
X0039447Y0167400D02*
X0039447Y0168190D01*
X0042207Y0168190D01*
X0042207Y0167400D01*
X0042207Y0168190D02*
X0039447Y0168190D01*
X0039447Y0169369D02*
X0042207Y0169369D01*
X0039447Y0169369D02*
X0039447Y0170159D01*
X0042207Y0170159D01*
X0042207Y0169369D01*
X0042207Y0170159D02*
X0039447Y0170159D01*
X0039447Y0171337D02*
X0042207Y0171337D01*
X0039447Y0171337D02*
X0039447Y0172127D01*
X0042207Y0172127D01*
X0042207Y0171337D01*
X0042207Y0172127D02*
X0039447Y0172127D01*
X0039447Y0173306D02*
X0042207Y0173306D01*
X0039447Y0173306D02*
X0039447Y0174096D01*
X0042207Y0174096D01*
X0042207Y0173306D01*
X0042207Y0174096D02*
X0039447Y0174096D01*
X0039447Y0175274D02*
X0042207Y0175274D01*
X0039447Y0175274D02*
X0039447Y0176064D01*
X0042207Y0176064D01*
X0042207Y0175274D01*
X0042207Y0176064D02*
X0039447Y0176064D01*
X0039447Y0177243D02*
X0042207Y0177243D01*
X0039447Y0177243D02*
X0039447Y0178033D01*
X0042207Y0178033D01*
X0042207Y0177243D01*
X0042207Y0178033D02*
X0039447Y0178033D01*
X0039447Y0179211D02*
X0042207Y0179211D01*
X0039447Y0179211D02*
X0039447Y0180001D01*
X0042207Y0180001D01*
X0042207Y0179211D01*
X0042207Y0180001D02*
X0039447Y0180001D01*
X0043385Y0181179D02*
X0043385Y0183939D01*
X0044175Y0183939D01*
X0044175Y0181179D01*
X0043385Y0181179D01*
X0043385Y0181969D02*
X0044175Y0181969D01*
X0044175Y0182759D02*
X0043385Y0182759D01*
X0043385Y0183549D02*
X0044175Y0183549D01*
X0045353Y0183939D02*
X0045353Y0181179D01*
X0045353Y0183939D02*
X0046143Y0183939D01*
X0046143Y0181179D01*
X0045353Y0181179D01*
X0045353Y0181969D02*
X0046143Y0181969D01*
X0046143Y0182759D02*
X0045353Y0182759D01*
X0045353Y0183549D02*
X0046143Y0183549D01*
X0047322Y0183939D02*
X0047322Y0181179D01*
X0047322Y0183939D02*
X0048112Y0183939D01*
X0048112Y0181179D01*
X0047322Y0181179D01*
X0047322Y0181969D02*
X0048112Y0181969D01*
X0048112Y0182759D02*
X0047322Y0182759D01*
X0047322Y0183549D02*
X0048112Y0183549D01*
X0049290Y0183939D02*
X0049290Y0181179D01*
X0049290Y0183939D02*
X0050080Y0183939D01*
X0050080Y0181179D01*
X0049290Y0181179D01*
X0049290Y0181969D02*
X0050080Y0181969D01*
X0050080Y0182759D02*
X0049290Y0182759D01*
X0049290Y0183549D02*
X0050080Y0183549D01*
X0051259Y0183939D02*
X0051259Y0181179D01*
X0051259Y0183939D02*
X0052049Y0183939D01*
X0052049Y0181179D01*
X0051259Y0181179D01*
X0051259Y0181969D02*
X0052049Y0181969D01*
X0052049Y0182759D02*
X0051259Y0182759D01*
X0051259Y0183549D02*
X0052049Y0183549D01*
X0072420Y0289054D02*
X0073210Y0289054D01*
X0072420Y0289054D02*
X0072420Y0292600D01*
X0073210Y0292600D01*
X0073210Y0289054D01*
X0073210Y0289844D02*
X0072420Y0289844D01*
X0072420Y0290634D02*
X0073210Y0290634D01*
X0073210Y0291424D02*
X0072420Y0291424D01*
X0072420Y0292214D02*
X0073210Y0292214D01*
X0074979Y0289054D02*
X0075769Y0289054D01*
X0074979Y0289054D02*
X0074979Y0292600D01*
X0075769Y0292600D01*
X0075769Y0289054D01*
X0075769Y0289844D02*
X0074979Y0289844D01*
X0074979Y0290634D02*
X0075769Y0290634D01*
X0075769Y0291424D02*
X0074979Y0291424D01*
X0074979Y0292214D02*
X0075769Y0292214D01*
X0077538Y0289054D02*
X0078328Y0289054D01*
X0077538Y0289054D02*
X0077538Y0292600D01*
X0078328Y0292600D01*
X0078328Y0289054D01*
X0078328Y0289844D02*
X0077538Y0289844D01*
X0077538Y0290634D02*
X0078328Y0290634D01*
X0078328Y0291424D02*
X0077538Y0291424D01*
X0077538Y0292214D02*
X0078328Y0292214D01*
X0080097Y0289054D02*
X0080887Y0289054D01*
X0080097Y0289054D02*
X0080097Y0292600D01*
X0080887Y0292600D01*
X0080887Y0289054D01*
X0080887Y0289844D02*
X0080097Y0289844D01*
X0080097Y0290634D02*
X0080887Y0290634D01*
X0080887Y0291424D02*
X0080097Y0291424D01*
X0080097Y0292214D02*
X0080887Y0292214D01*
X0080887Y0301652D02*
X0080097Y0301652D01*
X0080097Y0305198D01*
X0080887Y0305198D01*
X0080887Y0301652D01*
X0080887Y0302442D02*
X0080097Y0302442D01*
X0080097Y0303232D02*
X0080887Y0303232D01*
X0080887Y0304022D02*
X0080097Y0304022D01*
X0080097Y0304812D02*
X0080887Y0304812D01*
X0078328Y0301652D02*
X0077538Y0301652D01*
X0077538Y0305198D01*
X0078328Y0305198D01*
X0078328Y0301652D01*
X0078328Y0302442D02*
X0077538Y0302442D01*
X0077538Y0303232D02*
X0078328Y0303232D01*
X0078328Y0304022D02*
X0077538Y0304022D01*
X0077538Y0304812D02*
X0078328Y0304812D01*
X0075769Y0301652D02*
X0074979Y0301652D01*
X0074979Y0305198D01*
X0075769Y0305198D01*
X0075769Y0301652D01*
X0075769Y0302442D02*
X0074979Y0302442D01*
X0074979Y0303232D02*
X0075769Y0303232D01*
X0075769Y0304022D02*
X0074979Y0304022D01*
X0074979Y0304812D02*
X0075769Y0304812D01*
X0073210Y0301652D02*
X0072420Y0301652D01*
X0072420Y0305198D01*
X0073210Y0305198D01*
X0073210Y0301652D01*
X0073210Y0302442D02*
X0072420Y0302442D01*
X0072420Y0303232D02*
X0073210Y0303232D01*
X0073210Y0304022D02*
X0072420Y0304022D01*
X0072420Y0304812D02*
X0073210Y0304812D01*
X0149290Y0124884D02*
X0150080Y0124884D01*
X0150080Y0122912D01*
X0149290Y0122912D01*
X0149290Y0124884D01*
X0149290Y0123702D02*
X0150080Y0123702D01*
X0150080Y0124492D02*
X0149290Y0124492D01*
X0151849Y0124884D02*
X0152639Y0124884D01*
X0152639Y0122912D01*
X0151849Y0122912D01*
X0151849Y0124884D01*
X0151849Y0123702D02*
X0152639Y0123702D01*
X0152639Y0124492D02*
X0151849Y0124492D01*
X0154408Y0124884D02*
X0155198Y0124884D01*
X0155198Y0122912D01*
X0154408Y0122912D01*
X0154408Y0124884D01*
X0154408Y0123702D02*
X0155198Y0123702D01*
X0155198Y0124492D02*
X0154408Y0124492D01*
X0154408Y0117010D02*
X0155198Y0117010D01*
X0155198Y0115038D01*
X0154408Y0115038D01*
X0154408Y0117010D01*
X0154408Y0115828D02*
X0155198Y0115828D01*
X0155198Y0116618D02*
X0154408Y0116618D01*
X0152639Y0117010D02*
X0151849Y0117010D01*
X0152639Y0117010D02*
X0152639Y0115038D01*
X0151849Y0115038D01*
X0151849Y0117010D01*
X0151849Y0115828D02*
X0152639Y0115828D01*
X0152639Y0116618D02*
X0151849Y0116618D01*
X0150080Y0117010D02*
X0149290Y0117010D01*
X0150080Y0117010D02*
X0150080Y0115038D01*
X0149290Y0115038D01*
X0149290Y0117010D01*
X0149290Y0115828D02*
X0150080Y0115828D01*
X0150080Y0116618D02*
X0149290Y0116618D01*
D13*
X0127559Y0140020D03*
X0127559Y0145020D03*
X0127559Y0150020D03*
X0127559Y0155020D03*
X0101339Y0155020D03*
X0101339Y0150020D03*
X0101339Y0145020D03*
X0101339Y0140020D03*
X0093189Y0204587D03*
X0093189Y0209587D03*
X0093189Y0214587D03*
X0093189Y0219587D03*
X0072717Y0219587D03*
X0072717Y0214587D03*
X0072717Y0209587D03*
X0072717Y0204587D03*
D14*
X0083543Y0198701D03*
X0090236Y0198701D03*
X0083937Y0181378D03*
X0077244Y0181378D03*
X0053819Y0191417D03*
X0053819Y0198110D03*
X0027244Y0200276D03*
X0027244Y0193976D03*
X0027244Y0187677D03*
X0020551Y0187677D03*
X0020551Y0193976D03*
X0020551Y0200276D03*
X0020551Y0163268D03*
X0027244Y0163268D03*
X0027244Y0156181D03*
X0020551Y0156181D03*
X0020551Y0149094D03*
X0027244Y0149094D03*
X0033346Y0145748D03*
X0033346Y0152441D03*
X0059921Y0123898D03*
X0059921Y0116811D03*
X0059921Y0109724D03*
X0066614Y0109724D03*
X0066614Y0116811D03*
X0066614Y0123898D03*
X0088465Y0113858D03*
X0088465Y0107165D03*
X0095551Y0107165D03*
X0095551Y0113858D03*
X0102441Y0114449D03*
X0109134Y0114449D03*
X0109134Y0121535D03*
X0102441Y0121535D03*
X0107165Y0134134D03*
X0113858Y0134134D03*
X0160906Y0130394D03*
X0160906Y0123701D03*
X0137480Y0214449D03*
X0130787Y0214449D03*
X0124882Y0214449D03*
X0118189Y0214449D03*
X0080000Y0282953D03*
X0073307Y0282953D03*
X0065827Y0282953D03*
X0059134Y0282953D03*
X0033346Y0255591D03*
X0033346Y0248898D03*
X0026260Y0249685D03*
X0026260Y0256378D03*
X0019173Y0256378D03*
X0019173Y0249685D03*
X0035512Y0079803D03*
X0035512Y0074291D03*
X0042205Y0074291D03*
X0042205Y0079803D03*
X0049685Y0079803D03*
X0049685Y0074291D03*
X0056378Y0074291D03*
X0056378Y0079803D03*
X0056378Y0063268D03*
X0049685Y0063268D03*
X0042205Y0063268D03*
X0035512Y0063268D03*
X0035906Y0038071D03*
X0035906Y0030197D03*
X0029213Y0030197D03*
X0029213Y0038071D03*
X0163268Y0016220D03*
X0169567Y0016220D03*
X0169567Y0009528D03*
X0163268Y0009528D03*
D15*
X0127638Y0220945D03*
X0127638Y0228425D03*
X0118583Y0228425D03*
X0118583Y0224685D03*
X0118583Y0220945D03*
D16*
X0118583Y0235709D03*
X0126063Y0235709D03*
X0136693Y0223898D03*
X0144173Y0223898D03*
X0129213Y0267205D03*
X0121732Y0267205D03*
X0178425Y0082953D03*
X0185906Y0082953D03*
D17*
X0145157Y0207559D03*
X0145157Y0215039D03*
X0149094Y0278425D03*
X0149094Y0285906D03*
X0061693Y0041024D03*
X0061693Y0033543D03*
D18*
X0049094Y0030787D03*
X0049094Y0037480D03*
X0049094Y0044961D03*
X0049094Y0051654D03*
X0027047Y0082756D03*
X0027047Y0089449D03*
X0019961Y0089449D03*
X0019961Y0082756D03*
X0019961Y0112677D03*
X0019961Y0119370D03*
X0026260Y0119370D03*
X0026260Y0112677D03*
X0060118Y0137874D03*
X0060118Y0144567D03*
X0066417Y0144567D03*
X0072717Y0144567D03*
X0072717Y0137874D03*
X0066417Y0137874D03*
X0073307Y0109724D03*
X0080000Y0109724D03*
X0062480Y0100472D03*
X0062480Y0093780D03*
X0115827Y0123898D03*
X0122520Y0123898D03*
X0091811Y0163268D03*
X0085118Y0163268D03*
X0118189Y0207362D03*
X0124882Y0207362D03*
X0130787Y0207362D03*
X0137480Y0207362D03*
X0190039Y0204803D03*
X0190039Y0211496D03*
X0164843Y0286693D03*
X0164843Y0293386D03*
X0133543Y0308150D03*
X0126850Y0308150D03*
X0093386Y0282953D03*
X0086693Y0282953D03*
X0088465Y0290630D03*
X0088465Y0297323D03*
X0079213Y0310512D03*
X0072520Y0310512D03*
X0065827Y0310512D03*
X0059134Y0310512D03*
X0059134Y0303425D03*
X0065827Y0303425D03*
X0065827Y0296339D03*
X0059134Y0296339D03*
X0059134Y0289252D03*
X0065827Y0289252D03*
X0033543Y0242795D03*
X0026850Y0242795D03*
X0044370Y0201260D03*
X0044370Y0194567D03*
X0157756Y0056378D03*
X0157756Y0049685D03*
X0156772Y0042008D03*
X0163465Y0042008D03*
X0170157Y0042008D03*
X0176850Y0042008D03*
X0167402Y0117598D03*
X0160709Y0117598D03*
D19*
X0144370Y0234134D03*
X0134921Y0234134D03*
D20*
X0096535Y0169567D03*
X0088268Y0169567D03*
X0126850Y0315236D03*
X0135118Y0315236D03*
X0149094Y0017795D03*
X0156969Y0017795D03*
X0156969Y0009528D03*
X0149094Y0009528D03*
D21*
X0005000Y0008937D02*
X0005000Y0316024D01*
X0005002Y0316148D01*
X0005008Y0316271D01*
X0005017Y0316395D01*
X0005031Y0316517D01*
X0005048Y0316640D01*
X0005070Y0316762D01*
X0005095Y0316883D01*
X0005124Y0317003D01*
X0005156Y0317122D01*
X0005193Y0317241D01*
X0005233Y0317358D01*
X0005276Y0317473D01*
X0005324Y0317588D01*
X0005375Y0317700D01*
X0005429Y0317811D01*
X0005487Y0317921D01*
X0005548Y0318028D01*
X0005613Y0318134D01*
X0005681Y0318237D01*
X0005752Y0318338D01*
X0005826Y0318437D01*
X0005903Y0318534D01*
X0005984Y0318628D01*
X0006067Y0318719D01*
X0006153Y0318808D01*
X0006242Y0318894D01*
X0006333Y0318977D01*
X0006427Y0319058D01*
X0006524Y0319135D01*
X0006623Y0319209D01*
X0006724Y0319280D01*
X0006827Y0319348D01*
X0006933Y0319413D01*
X0007040Y0319474D01*
X0007150Y0319532D01*
X0007261Y0319586D01*
X0007373Y0319637D01*
X0007488Y0319685D01*
X0007603Y0319728D01*
X0007720Y0319768D01*
X0007839Y0319805D01*
X0007958Y0319837D01*
X0008078Y0319866D01*
X0008199Y0319891D01*
X0008321Y0319913D01*
X0008444Y0319930D01*
X0008566Y0319944D01*
X0008690Y0319953D01*
X0008813Y0319959D01*
X0008937Y0319961D01*
X0197913Y0319961D01*
X0198037Y0319959D01*
X0198160Y0319953D01*
X0198284Y0319944D01*
X0198406Y0319930D01*
X0198529Y0319913D01*
X0198651Y0319891D01*
X0198772Y0319866D01*
X0198892Y0319837D01*
X0199011Y0319805D01*
X0199130Y0319768D01*
X0199247Y0319728D01*
X0199362Y0319685D01*
X0199477Y0319637D01*
X0199589Y0319586D01*
X0199700Y0319532D01*
X0199810Y0319474D01*
X0199917Y0319413D01*
X0200023Y0319348D01*
X0200126Y0319280D01*
X0200227Y0319209D01*
X0200326Y0319135D01*
X0200423Y0319058D01*
X0200517Y0318977D01*
X0200608Y0318894D01*
X0200697Y0318808D01*
X0200783Y0318719D01*
X0200866Y0318628D01*
X0200947Y0318534D01*
X0201024Y0318437D01*
X0201098Y0318338D01*
X0201169Y0318237D01*
X0201237Y0318134D01*
X0201302Y0318028D01*
X0201363Y0317921D01*
X0201421Y0317811D01*
X0201475Y0317700D01*
X0201526Y0317588D01*
X0201574Y0317473D01*
X0201617Y0317358D01*
X0201657Y0317241D01*
X0201694Y0317122D01*
X0201726Y0317003D01*
X0201755Y0316883D01*
X0201780Y0316762D01*
X0201802Y0316640D01*
X0201819Y0316517D01*
X0201833Y0316395D01*
X0201842Y0316271D01*
X0201848Y0316148D01*
X0201850Y0316024D01*
X0201850Y0008937D01*
X0201848Y0008813D01*
X0201842Y0008690D01*
X0201833Y0008566D01*
X0201819Y0008444D01*
X0201802Y0008321D01*
X0201780Y0008199D01*
X0201755Y0008078D01*
X0201726Y0007958D01*
X0201694Y0007839D01*
X0201657Y0007720D01*
X0201617Y0007603D01*
X0201574Y0007488D01*
X0201526Y0007373D01*
X0201475Y0007261D01*
X0201421Y0007150D01*
X0201363Y0007040D01*
X0201302Y0006933D01*
X0201237Y0006827D01*
X0201169Y0006724D01*
X0201098Y0006623D01*
X0201024Y0006524D01*
X0200947Y0006427D01*
X0200866Y0006333D01*
X0200783Y0006242D01*
X0200697Y0006153D01*
X0200608Y0006067D01*
X0200517Y0005984D01*
X0200423Y0005903D01*
X0200326Y0005826D01*
X0200227Y0005752D01*
X0200126Y0005681D01*
X0200023Y0005613D01*
X0199917Y0005548D01*
X0199810Y0005487D01*
X0199700Y0005429D01*
X0199589Y0005375D01*
X0199477Y0005324D01*
X0199362Y0005276D01*
X0199247Y0005233D01*
X0199130Y0005193D01*
X0199011Y0005156D01*
X0198892Y0005124D01*
X0198772Y0005095D01*
X0198651Y0005070D01*
X0198529Y0005048D01*
X0198406Y0005031D01*
X0198284Y0005017D01*
X0198160Y0005008D01*
X0198037Y0005002D01*
X0197913Y0005000D01*
X0008937Y0005000D01*
X0008813Y0005002D01*
X0008690Y0005008D01*
X0008566Y0005017D01*
X0008444Y0005031D01*
X0008321Y0005048D01*
X0008199Y0005070D01*
X0008078Y0005095D01*
X0007958Y0005124D01*
X0007839Y0005156D01*
X0007720Y0005193D01*
X0007603Y0005233D01*
X0007488Y0005276D01*
X0007373Y0005324D01*
X0007261Y0005375D01*
X0007150Y0005429D01*
X0007040Y0005487D01*
X0006933Y0005548D01*
X0006827Y0005613D01*
X0006724Y0005681D01*
X0006623Y0005752D01*
X0006524Y0005826D01*
X0006427Y0005903D01*
X0006333Y0005984D01*
X0006242Y0006067D01*
X0006153Y0006153D01*
X0006067Y0006242D01*
X0005984Y0006333D01*
X0005903Y0006427D01*
X0005826Y0006524D01*
X0005752Y0006623D01*
X0005681Y0006724D01*
X0005613Y0006827D01*
X0005548Y0006933D01*
X0005487Y0007040D01*
X0005429Y0007150D01*
X0005375Y0007261D01*
X0005324Y0007373D01*
X0005276Y0007488D01*
X0005233Y0007603D01*
X0005193Y0007720D01*
X0005156Y0007839D01*
X0005124Y0007958D01*
X0005095Y0008078D01*
X0005070Y0008199D01*
X0005048Y0008321D01*
X0005031Y0008444D01*
X0005017Y0008566D01*
X0005008Y0008690D01*
X0005002Y0008813D01*
X0005000Y0008937D01*
D22*
X0014843Y0014843D03*
X0093583Y0014843D03*
X0113268Y0014843D03*
X0192008Y0014843D03*
X0192008Y0310118D03*
X0113268Y0310118D03*
X0093583Y0310118D03*
X0014843Y0310118D03*
D23*
X0060315Y0265492D03*
X0060315Y0260492D03*
X0060315Y0255492D03*
X0060315Y0250492D03*
X0060315Y0245492D03*
X0060315Y0240492D03*
X0083543Y0240492D03*
X0083543Y0245492D03*
X0083543Y0250492D03*
X0083543Y0255492D03*
X0083543Y0260492D03*
X0083543Y0265492D03*
X0158740Y0265492D03*
X0158740Y0260492D03*
X0158740Y0255492D03*
X0158740Y0250492D03*
X0158740Y0245492D03*
X0158740Y0240492D03*
X0181969Y0240492D03*
X0181969Y0245492D03*
X0181969Y0250492D03*
X0181969Y0255492D03*
X0181969Y0260492D03*
X0181969Y0265492D03*
D24*
X0180394Y0275866D03*
X0160315Y0275866D03*
X0160315Y0230197D03*
X0180394Y0230197D03*
X0081969Y0230197D03*
X0061890Y0230197D03*
X0061890Y0275866D03*
X0081969Y0275866D03*
D25*
X0068779Y0274232D02*
X0068781Y0274344D01*
X0068787Y0274455D01*
X0068797Y0274567D01*
X0068811Y0274678D01*
X0068828Y0274788D01*
X0068850Y0274898D01*
X0068876Y0275007D01*
X0068905Y0275115D01*
X0068938Y0275221D01*
X0068975Y0275327D01*
X0069016Y0275431D01*
X0069061Y0275534D01*
X0069109Y0275635D01*
X0069160Y0275734D01*
X0069215Y0275831D01*
X0069274Y0275926D01*
X0069335Y0276020D01*
X0069400Y0276111D01*
X0069469Y0276199D01*
X0069540Y0276285D01*
X0069614Y0276369D01*
X0069692Y0276449D01*
X0069772Y0276527D01*
X0069855Y0276603D01*
X0069940Y0276675D01*
X0070028Y0276744D01*
X0070118Y0276810D01*
X0070211Y0276872D01*
X0070306Y0276932D01*
X0070403Y0276988D01*
X0070501Y0277040D01*
X0070602Y0277089D01*
X0070704Y0277134D01*
X0070808Y0277176D01*
X0070913Y0277214D01*
X0071020Y0277248D01*
X0071127Y0277278D01*
X0071236Y0277305D01*
X0071345Y0277327D01*
X0071456Y0277346D01*
X0071566Y0277361D01*
X0071678Y0277372D01*
X0071789Y0277379D01*
X0071901Y0277382D01*
X0072013Y0277381D01*
X0072125Y0277376D01*
X0072236Y0277367D01*
X0072347Y0277354D01*
X0072458Y0277337D01*
X0072568Y0277317D01*
X0072677Y0277292D01*
X0072785Y0277264D01*
X0072892Y0277231D01*
X0072998Y0277195D01*
X0073102Y0277155D01*
X0073205Y0277112D01*
X0073307Y0277065D01*
X0073406Y0277014D01*
X0073504Y0276960D01*
X0073600Y0276902D01*
X0073694Y0276841D01*
X0073785Y0276777D01*
X0073874Y0276710D01*
X0073961Y0276639D01*
X0074045Y0276565D01*
X0074127Y0276489D01*
X0074205Y0276409D01*
X0074281Y0276327D01*
X0074354Y0276242D01*
X0074424Y0276155D01*
X0074490Y0276065D01*
X0074554Y0275973D01*
X0074614Y0275879D01*
X0074671Y0275783D01*
X0074724Y0275684D01*
X0074774Y0275584D01*
X0074820Y0275483D01*
X0074863Y0275379D01*
X0074902Y0275274D01*
X0074937Y0275168D01*
X0074968Y0275061D01*
X0074996Y0274952D01*
X0075019Y0274843D01*
X0075039Y0274733D01*
X0075055Y0274622D01*
X0075067Y0274511D01*
X0075075Y0274400D01*
X0075079Y0274288D01*
X0075079Y0274176D01*
X0075075Y0274064D01*
X0075067Y0273953D01*
X0075055Y0273842D01*
X0075039Y0273731D01*
X0075019Y0273621D01*
X0074996Y0273512D01*
X0074968Y0273403D01*
X0074937Y0273296D01*
X0074902Y0273190D01*
X0074863Y0273085D01*
X0074820Y0272981D01*
X0074774Y0272880D01*
X0074724Y0272780D01*
X0074671Y0272681D01*
X0074614Y0272585D01*
X0074554Y0272491D01*
X0074490Y0272399D01*
X0074424Y0272309D01*
X0074354Y0272222D01*
X0074281Y0272137D01*
X0074205Y0272055D01*
X0074127Y0271975D01*
X0074045Y0271899D01*
X0073961Y0271825D01*
X0073874Y0271754D01*
X0073785Y0271687D01*
X0073694Y0271623D01*
X0073600Y0271562D01*
X0073504Y0271504D01*
X0073406Y0271450D01*
X0073307Y0271399D01*
X0073205Y0271352D01*
X0073102Y0271309D01*
X0072998Y0271269D01*
X0072892Y0271233D01*
X0072785Y0271200D01*
X0072677Y0271172D01*
X0072568Y0271147D01*
X0072458Y0271127D01*
X0072347Y0271110D01*
X0072236Y0271097D01*
X0072125Y0271088D01*
X0072013Y0271083D01*
X0071901Y0271082D01*
X0071789Y0271085D01*
X0071678Y0271092D01*
X0071566Y0271103D01*
X0071456Y0271118D01*
X0071345Y0271137D01*
X0071236Y0271159D01*
X0071127Y0271186D01*
X0071020Y0271216D01*
X0070913Y0271250D01*
X0070808Y0271288D01*
X0070704Y0271330D01*
X0070602Y0271375D01*
X0070501Y0271424D01*
X0070403Y0271476D01*
X0070306Y0271532D01*
X0070211Y0271592D01*
X0070118Y0271654D01*
X0070028Y0271720D01*
X0069940Y0271789D01*
X0069855Y0271861D01*
X0069772Y0271937D01*
X0069692Y0272015D01*
X0069614Y0272095D01*
X0069540Y0272179D01*
X0069469Y0272265D01*
X0069400Y0272353D01*
X0069335Y0272444D01*
X0069274Y0272538D01*
X0069215Y0272633D01*
X0069160Y0272730D01*
X0069109Y0272829D01*
X0069061Y0272930D01*
X0069016Y0273033D01*
X0068975Y0273137D01*
X0068938Y0273243D01*
X0068905Y0273349D01*
X0068876Y0273457D01*
X0068850Y0273566D01*
X0068828Y0273676D01*
X0068811Y0273786D01*
X0068797Y0273897D01*
X0068787Y0274009D01*
X0068781Y0274120D01*
X0068779Y0274232D01*
X0068779Y0231831D02*
X0068781Y0231943D01*
X0068787Y0232054D01*
X0068797Y0232166D01*
X0068811Y0232277D01*
X0068828Y0232387D01*
X0068850Y0232497D01*
X0068876Y0232606D01*
X0068905Y0232714D01*
X0068938Y0232820D01*
X0068975Y0232926D01*
X0069016Y0233030D01*
X0069061Y0233133D01*
X0069109Y0233234D01*
X0069160Y0233333D01*
X0069215Y0233430D01*
X0069274Y0233525D01*
X0069335Y0233619D01*
X0069400Y0233710D01*
X0069469Y0233798D01*
X0069540Y0233884D01*
X0069614Y0233968D01*
X0069692Y0234048D01*
X0069772Y0234126D01*
X0069855Y0234202D01*
X0069940Y0234274D01*
X0070028Y0234343D01*
X0070118Y0234409D01*
X0070211Y0234471D01*
X0070306Y0234531D01*
X0070403Y0234587D01*
X0070501Y0234639D01*
X0070602Y0234688D01*
X0070704Y0234733D01*
X0070808Y0234775D01*
X0070913Y0234813D01*
X0071020Y0234847D01*
X0071127Y0234877D01*
X0071236Y0234904D01*
X0071345Y0234926D01*
X0071456Y0234945D01*
X0071566Y0234960D01*
X0071678Y0234971D01*
X0071789Y0234978D01*
X0071901Y0234981D01*
X0072013Y0234980D01*
X0072125Y0234975D01*
X0072236Y0234966D01*
X0072347Y0234953D01*
X0072458Y0234936D01*
X0072568Y0234916D01*
X0072677Y0234891D01*
X0072785Y0234863D01*
X0072892Y0234830D01*
X0072998Y0234794D01*
X0073102Y0234754D01*
X0073205Y0234711D01*
X0073307Y0234664D01*
X0073406Y0234613D01*
X0073504Y0234559D01*
X0073600Y0234501D01*
X0073694Y0234440D01*
X0073785Y0234376D01*
X0073874Y0234309D01*
X0073961Y0234238D01*
X0074045Y0234164D01*
X0074127Y0234088D01*
X0074205Y0234008D01*
X0074281Y0233926D01*
X0074354Y0233841D01*
X0074424Y0233754D01*
X0074490Y0233664D01*
X0074554Y0233572D01*
X0074614Y0233478D01*
X0074671Y0233382D01*
X0074724Y0233283D01*
X0074774Y0233183D01*
X0074820Y0233082D01*
X0074863Y0232978D01*
X0074902Y0232873D01*
X0074937Y0232767D01*
X0074968Y0232660D01*
X0074996Y0232551D01*
X0075019Y0232442D01*
X0075039Y0232332D01*
X0075055Y0232221D01*
X0075067Y0232110D01*
X0075075Y0231999D01*
X0075079Y0231887D01*
X0075079Y0231775D01*
X0075075Y0231663D01*
X0075067Y0231552D01*
X0075055Y0231441D01*
X0075039Y0231330D01*
X0075019Y0231220D01*
X0074996Y0231111D01*
X0074968Y0231002D01*
X0074937Y0230895D01*
X0074902Y0230789D01*
X0074863Y0230684D01*
X0074820Y0230580D01*
X0074774Y0230479D01*
X0074724Y0230379D01*
X0074671Y0230280D01*
X0074614Y0230184D01*
X0074554Y0230090D01*
X0074490Y0229998D01*
X0074424Y0229908D01*
X0074354Y0229821D01*
X0074281Y0229736D01*
X0074205Y0229654D01*
X0074127Y0229574D01*
X0074045Y0229498D01*
X0073961Y0229424D01*
X0073874Y0229353D01*
X0073785Y0229286D01*
X0073694Y0229222D01*
X0073600Y0229161D01*
X0073504Y0229103D01*
X0073406Y0229049D01*
X0073307Y0228998D01*
X0073205Y0228951D01*
X0073102Y0228908D01*
X0072998Y0228868D01*
X0072892Y0228832D01*
X0072785Y0228799D01*
X0072677Y0228771D01*
X0072568Y0228746D01*
X0072458Y0228726D01*
X0072347Y0228709D01*
X0072236Y0228696D01*
X0072125Y0228687D01*
X0072013Y0228682D01*
X0071901Y0228681D01*
X0071789Y0228684D01*
X0071678Y0228691D01*
X0071566Y0228702D01*
X0071456Y0228717D01*
X0071345Y0228736D01*
X0071236Y0228758D01*
X0071127Y0228785D01*
X0071020Y0228815D01*
X0070913Y0228849D01*
X0070808Y0228887D01*
X0070704Y0228929D01*
X0070602Y0228974D01*
X0070501Y0229023D01*
X0070403Y0229075D01*
X0070306Y0229131D01*
X0070211Y0229191D01*
X0070118Y0229253D01*
X0070028Y0229319D01*
X0069940Y0229388D01*
X0069855Y0229460D01*
X0069772Y0229536D01*
X0069692Y0229614D01*
X0069614Y0229694D01*
X0069540Y0229778D01*
X0069469Y0229864D01*
X0069400Y0229952D01*
X0069335Y0230043D01*
X0069274Y0230137D01*
X0069215Y0230232D01*
X0069160Y0230329D01*
X0069109Y0230428D01*
X0069061Y0230529D01*
X0069016Y0230632D01*
X0068975Y0230736D01*
X0068938Y0230842D01*
X0068905Y0230948D01*
X0068876Y0231056D01*
X0068850Y0231165D01*
X0068828Y0231275D01*
X0068811Y0231385D01*
X0068797Y0231496D01*
X0068787Y0231608D01*
X0068781Y0231719D01*
X0068779Y0231831D01*
X0155000Y0138543D02*
X0155002Y0138648D01*
X0155008Y0138753D01*
X0155018Y0138857D01*
X0155032Y0138961D01*
X0155050Y0139065D01*
X0155072Y0139167D01*
X0155097Y0139269D01*
X0155127Y0139370D01*
X0155160Y0139469D01*
X0155197Y0139567D01*
X0155238Y0139664D01*
X0155283Y0139759D01*
X0155331Y0139852D01*
X0155382Y0139944D01*
X0155438Y0140033D01*
X0155496Y0140120D01*
X0155558Y0140205D01*
X0155622Y0140288D01*
X0155690Y0140368D01*
X0155761Y0140445D01*
X0155835Y0140519D01*
X0155912Y0140591D01*
X0155991Y0140660D01*
X0156073Y0140725D01*
X0156157Y0140788D01*
X0156244Y0140847D01*
X0156333Y0140903D01*
X0156424Y0140956D01*
X0156517Y0141005D01*
X0156611Y0141050D01*
X0156707Y0141092D01*
X0156805Y0141130D01*
X0156904Y0141164D01*
X0157005Y0141195D01*
X0157106Y0141221D01*
X0157209Y0141244D01*
X0157312Y0141263D01*
X0157416Y0141278D01*
X0157520Y0141289D01*
X0157625Y0141296D01*
X0157730Y0141299D01*
X0157835Y0141298D01*
X0157940Y0141293D01*
X0158044Y0141284D01*
X0158148Y0141271D01*
X0158252Y0141254D01*
X0158355Y0141233D01*
X0158457Y0141208D01*
X0158558Y0141180D01*
X0158657Y0141147D01*
X0158756Y0141111D01*
X0158853Y0141071D01*
X0158948Y0141028D01*
X0159042Y0140980D01*
X0159134Y0140930D01*
X0159224Y0140876D01*
X0159312Y0140818D01*
X0159397Y0140757D01*
X0159480Y0140693D01*
X0159561Y0140626D01*
X0159639Y0140556D01*
X0159714Y0140482D01*
X0159786Y0140407D01*
X0159856Y0140328D01*
X0159922Y0140247D01*
X0159986Y0140163D01*
X0160046Y0140077D01*
X0160102Y0139989D01*
X0160156Y0139898D01*
X0160206Y0139806D01*
X0160252Y0139712D01*
X0160295Y0139616D01*
X0160334Y0139518D01*
X0160369Y0139420D01*
X0160400Y0139319D01*
X0160428Y0139218D01*
X0160452Y0139116D01*
X0160472Y0139013D01*
X0160488Y0138909D01*
X0160500Y0138805D01*
X0160508Y0138700D01*
X0160512Y0138595D01*
X0160512Y0138491D01*
X0160508Y0138386D01*
X0160500Y0138281D01*
X0160488Y0138177D01*
X0160472Y0138073D01*
X0160452Y0137970D01*
X0160428Y0137868D01*
X0160400Y0137767D01*
X0160369Y0137666D01*
X0160334Y0137568D01*
X0160295Y0137470D01*
X0160252Y0137374D01*
X0160206Y0137280D01*
X0160156Y0137188D01*
X0160102Y0137097D01*
X0160046Y0137009D01*
X0159986Y0136923D01*
X0159922Y0136839D01*
X0159856Y0136758D01*
X0159786Y0136679D01*
X0159714Y0136604D01*
X0159639Y0136530D01*
X0159561Y0136460D01*
X0159480Y0136393D01*
X0159397Y0136329D01*
X0159312Y0136268D01*
X0159224Y0136210D01*
X0159134Y0136156D01*
X0159042Y0136106D01*
X0158948Y0136058D01*
X0158853Y0136015D01*
X0158756Y0135975D01*
X0158657Y0135939D01*
X0158558Y0135906D01*
X0158457Y0135878D01*
X0158355Y0135853D01*
X0158252Y0135832D01*
X0158148Y0135815D01*
X0158044Y0135802D01*
X0157940Y0135793D01*
X0157835Y0135788D01*
X0157730Y0135787D01*
X0157625Y0135790D01*
X0157520Y0135797D01*
X0157416Y0135808D01*
X0157312Y0135823D01*
X0157209Y0135842D01*
X0157106Y0135865D01*
X0157005Y0135891D01*
X0156904Y0135922D01*
X0156805Y0135956D01*
X0156707Y0135994D01*
X0156611Y0136036D01*
X0156517Y0136081D01*
X0156424Y0136130D01*
X0156333Y0136183D01*
X0156244Y0136239D01*
X0156157Y0136298D01*
X0156073Y0136361D01*
X0155991Y0136426D01*
X0155912Y0136495D01*
X0155835Y0136567D01*
X0155761Y0136641D01*
X0155690Y0136718D01*
X0155622Y0136798D01*
X0155558Y0136881D01*
X0155496Y0136966D01*
X0155438Y0137053D01*
X0155382Y0137142D01*
X0155331Y0137234D01*
X0155283Y0137327D01*
X0155238Y0137422D01*
X0155197Y0137519D01*
X0155160Y0137617D01*
X0155127Y0137716D01*
X0155097Y0137817D01*
X0155072Y0137919D01*
X0155050Y0138021D01*
X0155032Y0138125D01*
X0155018Y0138229D01*
X0155008Y0138333D01*
X0155002Y0138438D01*
X0155000Y0138543D01*
X0155000Y0083425D02*
X0155002Y0083530D01*
X0155008Y0083635D01*
X0155018Y0083739D01*
X0155032Y0083843D01*
X0155050Y0083947D01*
X0155072Y0084049D01*
X0155097Y0084151D01*
X0155127Y0084252D01*
X0155160Y0084351D01*
X0155197Y0084449D01*
X0155238Y0084546D01*
X0155283Y0084641D01*
X0155331Y0084734D01*
X0155382Y0084826D01*
X0155438Y0084915D01*
X0155496Y0085002D01*
X0155558Y0085087D01*
X0155622Y0085170D01*
X0155690Y0085250D01*
X0155761Y0085327D01*
X0155835Y0085401D01*
X0155912Y0085473D01*
X0155991Y0085542D01*
X0156073Y0085607D01*
X0156157Y0085670D01*
X0156244Y0085729D01*
X0156333Y0085785D01*
X0156424Y0085838D01*
X0156517Y0085887D01*
X0156611Y0085932D01*
X0156707Y0085974D01*
X0156805Y0086012D01*
X0156904Y0086046D01*
X0157005Y0086077D01*
X0157106Y0086103D01*
X0157209Y0086126D01*
X0157312Y0086145D01*
X0157416Y0086160D01*
X0157520Y0086171D01*
X0157625Y0086178D01*
X0157730Y0086181D01*
X0157835Y0086180D01*
X0157940Y0086175D01*
X0158044Y0086166D01*
X0158148Y0086153D01*
X0158252Y0086136D01*
X0158355Y0086115D01*
X0158457Y0086090D01*
X0158558Y0086062D01*
X0158657Y0086029D01*
X0158756Y0085993D01*
X0158853Y0085953D01*
X0158948Y0085910D01*
X0159042Y0085862D01*
X0159134Y0085812D01*
X0159224Y0085758D01*
X0159312Y0085700D01*
X0159397Y0085639D01*
X0159480Y0085575D01*
X0159561Y0085508D01*
X0159639Y0085438D01*
X0159714Y0085364D01*
X0159786Y0085289D01*
X0159856Y0085210D01*
X0159922Y0085129D01*
X0159986Y0085045D01*
X0160046Y0084959D01*
X0160102Y0084871D01*
X0160156Y0084780D01*
X0160206Y0084688D01*
X0160252Y0084594D01*
X0160295Y0084498D01*
X0160334Y0084400D01*
X0160369Y0084302D01*
X0160400Y0084201D01*
X0160428Y0084100D01*
X0160452Y0083998D01*
X0160472Y0083895D01*
X0160488Y0083791D01*
X0160500Y0083687D01*
X0160508Y0083582D01*
X0160512Y0083477D01*
X0160512Y0083373D01*
X0160508Y0083268D01*
X0160500Y0083163D01*
X0160488Y0083059D01*
X0160472Y0082955D01*
X0160452Y0082852D01*
X0160428Y0082750D01*
X0160400Y0082649D01*
X0160369Y0082548D01*
X0160334Y0082450D01*
X0160295Y0082352D01*
X0160252Y0082256D01*
X0160206Y0082162D01*
X0160156Y0082070D01*
X0160102Y0081979D01*
X0160046Y0081891D01*
X0159986Y0081805D01*
X0159922Y0081721D01*
X0159856Y0081640D01*
X0159786Y0081561D01*
X0159714Y0081486D01*
X0159639Y0081412D01*
X0159561Y0081342D01*
X0159480Y0081275D01*
X0159397Y0081211D01*
X0159312Y0081150D01*
X0159224Y0081092D01*
X0159134Y0081038D01*
X0159042Y0080988D01*
X0158948Y0080940D01*
X0158853Y0080897D01*
X0158756Y0080857D01*
X0158657Y0080821D01*
X0158558Y0080788D01*
X0158457Y0080760D01*
X0158355Y0080735D01*
X0158252Y0080714D01*
X0158148Y0080697D01*
X0158044Y0080684D01*
X0157940Y0080675D01*
X0157835Y0080670D01*
X0157730Y0080669D01*
X0157625Y0080672D01*
X0157520Y0080679D01*
X0157416Y0080690D01*
X0157312Y0080705D01*
X0157209Y0080724D01*
X0157106Y0080747D01*
X0157005Y0080773D01*
X0156904Y0080804D01*
X0156805Y0080838D01*
X0156707Y0080876D01*
X0156611Y0080918D01*
X0156517Y0080963D01*
X0156424Y0081012D01*
X0156333Y0081065D01*
X0156244Y0081121D01*
X0156157Y0081180D01*
X0156073Y0081243D01*
X0155991Y0081308D01*
X0155912Y0081377D01*
X0155835Y0081449D01*
X0155761Y0081523D01*
X0155690Y0081600D01*
X0155622Y0081680D01*
X0155558Y0081763D01*
X0155496Y0081848D01*
X0155438Y0081935D01*
X0155382Y0082024D01*
X0155331Y0082116D01*
X0155283Y0082209D01*
X0155238Y0082304D01*
X0155197Y0082401D01*
X0155160Y0082499D01*
X0155127Y0082598D01*
X0155097Y0082699D01*
X0155072Y0082801D01*
X0155050Y0082903D01*
X0155032Y0083007D01*
X0155018Y0083111D01*
X0155008Y0083215D01*
X0155002Y0083320D01*
X0155000Y0083425D01*
X0167204Y0231831D02*
X0167206Y0231943D01*
X0167212Y0232054D01*
X0167222Y0232166D01*
X0167236Y0232277D01*
X0167253Y0232387D01*
X0167275Y0232497D01*
X0167301Y0232606D01*
X0167330Y0232714D01*
X0167363Y0232820D01*
X0167400Y0232926D01*
X0167441Y0233030D01*
X0167486Y0233133D01*
X0167534Y0233234D01*
X0167585Y0233333D01*
X0167640Y0233430D01*
X0167699Y0233525D01*
X0167760Y0233619D01*
X0167825Y0233710D01*
X0167894Y0233798D01*
X0167965Y0233884D01*
X0168039Y0233968D01*
X0168117Y0234048D01*
X0168197Y0234126D01*
X0168280Y0234202D01*
X0168365Y0234274D01*
X0168453Y0234343D01*
X0168543Y0234409D01*
X0168636Y0234471D01*
X0168731Y0234531D01*
X0168828Y0234587D01*
X0168926Y0234639D01*
X0169027Y0234688D01*
X0169129Y0234733D01*
X0169233Y0234775D01*
X0169338Y0234813D01*
X0169445Y0234847D01*
X0169552Y0234877D01*
X0169661Y0234904D01*
X0169770Y0234926D01*
X0169881Y0234945D01*
X0169991Y0234960D01*
X0170103Y0234971D01*
X0170214Y0234978D01*
X0170326Y0234981D01*
X0170438Y0234980D01*
X0170550Y0234975D01*
X0170661Y0234966D01*
X0170772Y0234953D01*
X0170883Y0234936D01*
X0170993Y0234916D01*
X0171102Y0234891D01*
X0171210Y0234863D01*
X0171317Y0234830D01*
X0171423Y0234794D01*
X0171527Y0234754D01*
X0171630Y0234711D01*
X0171732Y0234664D01*
X0171831Y0234613D01*
X0171929Y0234559D01*
X0172025Y0234501D01*
X0172119Y0234440D01*
X0172210Y0234376D01*
X0172299Y0234309D01*
X0172386Y0234238D01*
X0172470Y0234164D01*
X0172552Y0234088D01*
X0172630Y0234008D01*
X0172706Y0233926D01*
X0172779Y0233841D01*
X0172849Y0233754D01*
X0172915Y0233664D01*
X0172979Y0233572D01*
X0173039Y0233478D01*
X0173096Y0233382D01*
X0173149Y0233283D01*
X0173199Y0233183D01*
X0173245Y0233082D01*
X0173288Y0232978D01*
X0173327Y0232873D01*
X0173362Y0232767D01*
X0173393Y0232660D01*
X0173421Y0232551D01*
X0173444Y0232442D01*
X0173464Y0232332D01*
X0173480Y0232221D01*
X0173492Y0232110D01*
X0173500Y0231999D01*
X0173504Y0231887D01*
X0173504Y0231775D01*
X0173500Y0231663D01*
X0173492Y0231552D01*
X0173480Y0231441D01*
X0173464Y0231330D01*
X0173444Y0231220D01*
X0173421Y0231111D01*
X0173393Y0231002D01*
X0173362Y0230895D01*
X0173327Y0230789D01*
X0173288Y0230684D01*
X0173245Y0230580D01*
X0173199Y0230479D01*
X0173149Y0230379D01*
X0173096Y0230280D01*
X0173039Y0230184D01*
X0172979Y0230090D01*
X0172915Y0229998D01*
X0172849Y0229908D01*
X0172779Y0229821D01*
X0172706Y0229736D01*
X0172630Y0229654D01*
X0172552Y0229574D01*
X0172470Y0229498D01*
X0172386Y0229424D01*
X0172299Y0229353D01*
X0172210Y0229286D01*
X0172119Y0229222D01*
X0172025Y0229161D01*
X0171929Y0229103D01*
X0171831Y0229049D01*
X0171732Y0228998D01*
X0171630Y0228951D01*
X0171527Y0228908D01*
X0171423Y0228868D01*
X0171317Y0228832D01*
X0171210Y0228799D01*
X0171102Y0228771D01*
X0170993Y0228746D01*
X0170883Y0228726D01*
X0170772Y0228709D01*
X0170661Y0228696D01*
X0170550Y0228687D01*
X0170438Y0228682D01*
X0170326Y0228681D01*
X0170214Y0228684D01*
X0170103Y0228691D01*
X0169991Y0228702D01*
X0169881Y0228717D01*
X0169770Y0228736D01*
X0169661Y0228758D01*
X0169552Y0228785D01*
X0169445Y0228815D01*
X0169338Y0228849D01*
X0169233Y0228887D01*
X0169129Y0228929D01*
X0169027Y0228974D01*
X0168926Y0229023D01*
X0168828Y0229075D01*
X0168731Y0229131D01*
X0168636Y0229191D01*
X0168543Y0229253D01*
X0168453Y0229319D01*
X0168365Y0229388D01*
X0168280Y0229460D01*
X0168197Y0229536D01*
X0168117Y0229614D01*
X0168039Y0229694D01*
X0167965Y0229778D01*
X0167894Y0229864D01*
X0167825Y0229952D01*
X0167760Y0230043D01*
X0167699Y0230137D01*
X0167640Y0230232D01*
X0167585Y0230329D01*
X0167534Y0230428D01*
X0167486Y0230529D01*
X0167441Y0230632D01*
X0167400Y0230736D01*
X0167363Y0230842D01*
X0167330Y0230948D01*
X0167301Y0231056D01*
X0167275Y0231165D01*
X0167253Y0231275D01*
X0167236Y0231385D01*
X0167222Y0231496D01*
X0167212Y0231608D01*
X0167206Y0231719D01*
X0167204Y0231831D01*
X0167204Y0274232D02*
X0167206Y0274344D01*
X0167212Y0274455D01*
X0167222Y0274567D01*
X0167236Y0274678D01*
X0167253Y0274788D01*
X0167275Y0274898D01*
X0167301Y0275007D01*
X0167330Y0275115D01*
X0167363Y0275221D01*
X0167400Y0275327D01*
X0167441Y0275431D01*
X0167486Y0275534D01*
X0167534Y0275635D01*
X0167585Y0275734D01*
X0167640Y0275831D01*
X0167699Y0275926D01*
X0167760Y0276020D01*
X0167825Y0276111D01*
X0167894Y0276199D01*
X0167965Y0276285D01*
X0168039Y0276369D01*
X0168117Y0276449D01*
X0168197Y0276527D01*
X0168280Y0276603D01*
X0168365Y0276675D01*
X0168453Y0276744D01*
X0168543Y0276810D01*
X0168636Y0276872D01*
X0168731Y0276932D01*
X0168828Y0276988D01*
X0168926Y0277040D01*
X0169027Y0277089D01*
X0169129Y0277134D01*
X0169233Y0277176D01*
X0169338Y0277214D01*
X0169445Y0277248D01*
X0169552Y0277278D01*
X0169661Y0277305D01*
X0169770Y0277327D01*
X0169881Y0277346D01*
X0169991Y0277361D01*
X0170103Y0277372D01*
X0170214Y0277379D01*
X0170326Y0277382D01*
X0170438Y0277381D01*
X0170550Y0277376D01*
X0170661Y0277367D01*
X0170772Y0277354D01*
X0170883Y0277337D01*
X0170993Y0277317D01*
X0171102Y0277292D01*
X0171210Y0277264D01*
X0171317Y0277231D01*
X0171423Y0277195D01*
X0171527Y0277155D01*
X0171630Y0277112D01*
X0171732Y0277065D01*
X0171831Y0277014D01*
X0171929Y0276960D01*
X0172025Y0276902D01*
X0172119Y0276841D01*
X0172210Y0276777D01*
X0172299Y0276710D01*
X0172386Y0276639D01*
X0172470Y0276565D01*
X0172552Y0276489D01*
X0172630Y0276409D01*
X0172706Y0276327D01*
X0172779Y0276242D01*
X0172849Y0276155D01*
X0172915Y0276065D01*
X0172979Y0275973D01*
X0173039Y0275879D01*
X0173096Y0275783D01*
X0173149Y0275684D01*
X0173199Y0275584D01*
X0173245Y0275483D01*
X0173288Y0275379D01*
X0173327Y0275274D01*
X0173362Y0275168D01*
X0173393Y0275061D01*
X0173421Y0274952D01*
X0173444Y0274843D01*
X0173464Y0274733D01*
X0173480Y0274622D01*
X0173492Y0274511D01*
X0173500Y0274400D01*
X0173504Y0274288D01*
X0173504Y0274176D01*
X0173500Y0274064D01*
X0173492Y0273953D01*
X0173480Y0273842D01*
X0173464Y0273731D01*
X0173444Y0273621D01*
X0173421Y0273512D01*
X0173393Y0273403D01*
X0173362Y0273296D01*
X0173327Y0273190D01*
X0173288Y0273085D01*
X0173245Y0272981D01*
X0173199Y0272880D01*
X0173149Y0272780D01*
X0173096Y0272681D01*
X0173039Y0272585D01*
X0172979Y0272491D01*
X0172915Y0272399D01*
X0172849Y0272309D01*
X0172779Y0272222D01*
X0172706Y0272137D01*
X0172630Y0272055D01*
X0172552Y0271975D01*
X0172470Y0271899D01*
X0172386Y0271825D01*
X0172299Y0271754D01*
X0172210Y0271687D01*
X0172119Y0271623D01*
X0172025Y0271562D01*
X0171929Y0271504D01*
X0171831Y0271450D01*
X0171732Y0271399D01*
X0171630Y0271352D01*
X0171527Y0271309D01*
X0171423Y0271269D01*
X0171317Y0271233D01*
X0171210Y0271200D01*
X0171102Y0271172D01*
X0170993Y0271147D01*
X0170883Y0271127D01*
X0170772Y0271110D01*
X0170661Y0271097D01*
X0170550Y0271088D01*
X0170438Y0271083D01*
X0170326Y0271082D01*
X0170214Y0271085D01*
X0170103Y0271092D01*
X0169991Y0271103D01*
X0169881Y0271118D01*
X0169770Y0271137D01*
X0169661Y0271159D01*
X0169552Y0271186D01*
X0169445Y0271216D01*
X0169338Y0271250D01*
X0169233Y0271288D01*
X0169129Y0271330D01*
X0169027Y0271375D01*
X0168926Y0271424D01*
X0168828Y0271476D01*
X0168731Y0271532D01*
X0168636Y0271592D01*
X0168543Y0271654D01*
X0168453Y0271720D01*
X0168365Y0271789D01*
X0168280Y0271861D01*
X0168197Y0271937D01*
X0168117Y0272015D01*
X0168039Y0272095D01*
X0167965Y0272179D01*
X0167894Y0272265D01*
X0167825Y0272353D01*
X0167760Y0272444D01*
X0167699Y0272538D01*
X0167640Y0272633D01*
X0167585Y0272730D01*
X0167534Y0272829D01*
X0167486Y0272930D01*
X0167441Y0273033D01*
X0167400Y0273137D01*
X0167363Y0273243D01*
X0167330Y0273349D01*
X0167301Y0273457D01*
X0167275Y0273566D01*
X0167253Y0273676D01*
X0167236Y0273786D01*
X0167222Y0273897D01*
X0167212Y0274009D01*
X0167206Y0274120D01*
X0167204Y0274232D01*
D26*
X0170354Y0274232D03*
X0170354Y0231831D03*
X0071929Y0231831D03*
X0071929Y0274232D03*
D27*
X0027244Y0180197D03*
X0020551Y0180197D03*
X0020551Y0171535D03*
X0027244Y0171535D03*
X0026457Y0105394D03*
X0026457Y0096732D03*
X0019764Y0096732D03*
X0019764Y0105394D03*
D28*
X0034921Y0086102D03*
X0042795Y0086102D03*
X0049094Y0086102D03*
X0056969Y0086102D03*
X0056969Y0068780D03*
X0049094Y0068780D03*
X0042795Y0068780D03*
X0034921Y0068780D03*
X0042008Y0052244D03*
X0042008Y0044370D03*
X0042008Y0038071D03*
X0042008Y0030197D03*
X0049094Y0057756D03*
X0056969Y0057756D03*
X0027047Y0139646D03*
X0019173Y0139646D03*
X0149882Y0293189D03*
X0157756Y0293189D03*
D29*
X0029685Y0206575D03*
X0019685Y0206575D03*
D30*
X0155000Y0304016D03*
X0157559Y0304016D03*
X0160118Y0304016D03*
X0162677Y0304016D03*
X0165236Y0304016D03*
D31*
X0175866Y0314449D03*
X0144370Y0314449D03*
D32*
X0162626Y0218240D02*
X0171784Y0218240D01*
X0171784Y0209082D01*
X0162626Y0209082D01*
X0162626Y0218240D01*
X0162626Y0212134D02*
X0171784Y0212134D01*
X0171784Y0215186D02*
X0162626Y0215186D01*
X0162626Y0218238D02*
X0171784Y0218238D01*
D33*
X0170796Y0222075D02*
X0170796Y0224933D01*
X0171488Y0224933D01*
X0171488Y0222075D01*
X0170796Y0222075D01*
X0170796Y0222766D02*
X0171488Y0222766D01*
X0171488Y0223457D02*
X0170796Y0223457D01*
X0170796Y0224148D02*
X0171488Y0224148D01*
X0171488Y0224839D02*
X0170796Y0224839D01*
X0168827Y0224933D02*
X0168827Y0222075D01*
X0168827Y0224933D02*
X0169519Y0224933D01*
X0169519Y0222075D01*
X0168827Y0222075D01*
X0168827Y0222766D02*
X0169519Y0222766D01*
X0169519Y0223457D02*
X0168827Y0223457D01*
X0168827Y0224148D02*
X0169519Y0224148D01*
X0169519Y0224839D02*
X0168827Y0224839D01*
X0166859Y0224933D02*
X0166859Y0222075D01*
X0166859Y0224933D02*
X0167551Y0224933D01*
X0167551Y0222075D01*
X0166859Y0222075D01*
X0166859Y0222766D02*
X0167551Y0222766D01*
X0167551Y0223457D02*
X0166859Y0223457D01*
X0166859Y0224148D02*
X0167551Y0224148D01*
X0167551Y0224839D02*
X0166859Y0224839D01*
X0164890Y0224933D02*
X0164890Y0222075D01*
X0164890Y0224933D02*
X0165582Y0224933D01*
X0165582Y0222075D01*
X0164890Y0222075D01*
X0164890Y0222766D02*
X0165582Y0222766D01*
X0165582Y0223457D02*
X0164890Y0223457D01*
X0164890Y0224148D02*
X0165582Y0224148D01*
X0165582Y0224839D02*
X0164890Y0224839D01*
X0162922Y0224933D02*
X0162922Y0222075D01*
X0162922Y0224933D02*
X0163614Y0224933D01*
X0163614Y0222075D01*
X0162922Y0222075D01*
X0162922Y0222766D02*
X0163614Y0222766D01*
X0163614Y0223457D02*
X0162922Y0223457D01*
X0162922Y0224148D02*
X0163614Y0224148D01*
X0163614Y0224839D02*
X0162922Y0224839D01*
X0160953Y0224933D02*
X0160953Y0222075D01*
X0160953Y0224933D02*
X0161645Y0224933D01*
X0161645Y0222075D01*
X0160953Y0222075D01*
X0160953Y0222766D02*
X0161645Y0222766D01*
X0161645Y0223457D02*
X0160953Y0223457D01*
X0160953Y0224148D02*
X0161645Y0224148D01*
X0161645Y0224839D02*
X0160953Y0224839D01*
X0158791Y0219221D02*
X0155933Y0219221D01*
X0155933Y0219913D01*
X0158791Y0219913D01*
X0158791Y0219221D01*
X0158791Y0219912D02*
X0155933Y0219912D01*
X0155933Y0217252D02*
X0158791Y0217252D01*
X0155933Y0217252D02*
X0155933Y0217944D01*
X0158791Y0217944D01*
X0158791Y0217252D01*
X0158791Y0217943D02*
X0155933Y0217943D01*
X0155933Y0215284D02*
X0158791Y0215284D01*
X0155933Y0215284D02*
X0155933Y0215976D01*
X0158791Y0215976D01*
X0158791Y0215284D01*
X0158791Y0215975D02*
X0155933Y0215975D01*
X0155933Y0213315D02*
X0158791Y0213315D01*
X0155933Y0213315D02*
X0155933Y0214007D01*
X0158791Y0214007D01*
X0158791Y0213315D01*
X0158791Y0214006D02*
X0155933Y0214006D01*
X0155933Y0212039D02*
X0158791Y0212039D01*
X0158791Y0211347D01*
X0155933Y0211347D01*
X0155933Y0212039D01*
X0155933Y0212038D02*
X0158791Y0212038D01*
X0158791Y0210070D02*
X0155933Y0210070D01*
X0158791Y0210070D02*
X0158791Y0209378D01*
X0155933Y0209378D01*
X0155933Y0210070D01*
X0155933Y0210069D02*
X0158791Y0210069D01*
X0158791Y0208102D02*
X0155933Y0208102D01*
X0158791Y0208102D02*
X0158791Y0207410D01*
X0155933Y0207410D01*
X0155933Y0208102D01*
X0155933Y0208101D02*
X0158791Y0208101D01*
X0161645Y0205248D02*
X0161645Y0202390D01*
X0160953Y0202390D01*
X0160953Y0205248D01*
X0161645Y0205248D01*
X0161645Y0203081D02*
X0160953Y0203081D01*
X0160953Y0203772D02*
X0161645Y0203772D01*
X0161645Y0204463D02*
X0160953Y0204463D01*
X0160953Y0205154D02*
X0161645Y0205154D01*
X0163614Y0205248D02*
X0163614Y0202390D01*
X0162922Y0202390D01*
X0162922Y0205248D01*
X0163614Y0205248D01*
X0163614Y0203081D02*
X0162922Y0203081D01*
X0162922Y0203772D02*
X0163614Y0203772D01*
X0163614Y0204463D02*
X0162922Y0204463D01*
X0162922Y0205154D02*
X0163614Y0205154D01*
X0165582Y0205248D02*
X0165582Y0202390D01*
X0164890Y0202390D01*
X0164890Y0205248D01*
X0165582Y0205248D01*
X0165582Y0203081D02*
X0164890Y0203081D01*
X0164890Y0203772D02*
X0165582Y0203772D01*
X0165582Y0204463D02*
X0164890Y0204463D01*
X0164890Y0205154D02*
X0165582Y0205154D01*
X0167551Y0205248D02*
X0167551Y0202390D01*
X0166859Y0202390D01*
X0166859Y0205248D01*
X0167551Y0205248D01*
X0167551Y0203081D02*
X0166859Y0203081D01*
X0166859Y0203772D02*
X0167551Y0203772D01*
X0167551Y0204463D02*
X0166859Y0204463D01*
X0166859Y0205154D02*
X0167551Y0205154D01*
X0169519Y0205248D02*
X0169519Y0202390D01*
X0168827Y0202390D01*
X0168827Y0205248D01*
X0169519Y0205248D01*
X0169519Y0203081D02*
X0168827Y0203081D01*
X0168827Y0203772D02*
X0169519Y0203772D01*
X0169519Y0204463D02*
X0168827Y0204463D01*
X0168827Y0205154D02*
X0169519Y0205154D01*
X0171488Y0205248D02*
X0171488Y0202390D01*
X0170796Y0202390D01*
X0170796Y0205248D01*
X0171488Y0205248D01*
X0171488Y0203081D02*
X0170796Y0203081D01*
X0170796Y0203772D02*
X0171488Y0203772D01*
X0171488Y0204463D02*
X0170796Y0204463D01*
X0170796Y0205154D02*
X0171488Y0205154D01*
X0173456Y0205248D02*
X0173456Y0202390D01*
X0172764Y0202390D01*
X0172764Y0205248D01*
X0173456Y0205248D01*
X0173456Y0203081D02*
X0172764Y0203081D01*
X0172764Y0203772D02*
X0173456Y0203772D01*
X0173456Y0204463D02*
X0172764Y0204463D01*
X0172764Y0205154D02*
X0173456Y0205154D01*
X0175618Y0208102D02*
X0178476Y0208102D01*
X0178476Y0207410D01*
X0175618Y0207410D01*
X0175618Y0208102D01*
X0175618Y0208101D02*
X0178476Y0208101D01*
X0178476Y0210070D02*
X0175618Y0210070D01*
X0178476Y0210070D02*
X0178476Y0209378D01*
X0175618Y0209378D01*
X0175618Y0210070D01*
X0175618Y0210069D02*
X0178476Y0210069D01*
X0178476Y0212039D02*
X0175618Y0212039D01*
X0178476Y0212039D02*
X0178476Y0211347D01*
X0175618Y0211347D01*
X0175618Y0212039D01*
X0175618Y0212038D02*
X0178476Y0212038D01*
X0178476Y0214007D02*
X0175618Y0214007D01*
X0178476Y0214007D02*
X0178476Y0213315D01*
X0175618Y0213315D01*
X0175618Y0214007D01*
X0175618Y0214006D02*
X0178476Y0214006D01*
X0178476Y0215976D02*
X0175618Y0215976D01*
X0178476Y0215976D02*
X0178476Y0215284D01*
X0175618Y0215284D01*
X0175618Y0215976D01*
X0175618Y0215975D02*
X0178476Y0215975D01*
X0178476Y0217944D02*
X0175618Y0217944D01*
X0178476Y0217944D02*
X0178476Y0217252D01*
X0175618Y0217252D01*
X0175618Y0217944D01*
X0175618Y0217943D02*
X0178476Y0217943D01*
X0178476Y0219913D02*
X0175618Y0219913D01*
X0178476Y0219913D02*
X0178476Y0219221D01*
X0175618Y0219221D01*
X0175618Y0219913D01*
X0175618Y0219912D02*
X0178476Y0219912D01*
X0172764Y0222075D02*
X0172764Y0224933D01*
X0173456Y0224933D01*
X0173456Y0222075D01*
X0172764Y0222075D01*
X0172764Y0222766D02*
X0173456Y0222766D01*
X0173456Y0223457D02*
X0172764Y0223457D01*
X0172764Y0224148D02*
X0173456Y0224148D01*
X0173456Y0224839D02*
X0172764Y0224839D01*
D34*
X0135709Y0097913D02*
X0135709Y0090827D01*
X0131378Y0090827D02*
X0131378Y0097913D01*
X0127047Y0097913D02*
X0127047Y0090827D01*
X0122717Y0090827D02*
X0122717Y0097913D01*
X0118386Y0097913D02*
X0118386Y0090827D01*
X0114055Y0090827D02*
X0114055Y0097913D01*
X0109724Y0097913D02*
X0109724Y0090827D01*
X0105394Y0090827D02*
X0105394Y0097913D01*
X0101063Y0097913D02*
X0101063Y0090827D01*
X0096732Y0090827D02*
X0096732Y0097913D01*
X0092402Y0097913D02*
X0092402Y0090827D01*
X0088071Y0090827D02*
X0088071Y0097913D01*
X0083740Y0097913D02*
X0083740Y0090827D01*
X0078622Y0081378D02*
X0071536Y0081378D01*
X0071536Y0077047D02*
X0078622Y0077047D01*
X0078622Y0072717D02*
X0071536Y0072717D01*
X0071536Y0068386D02*
X0078622Y0068386D01*
X0078622Y0064055D02*
X0071536Y0064055D01*
X0071536Y0059724D02*
X0078622Y0059724D01*
X0078622Y0055394D02*
X0071536Y0055394D01*
X0071536Y0051063D02*
X0078622Y0051063D01*
X0078622Y0046732D02*
X0071536Y0046732D01*
X0083740Y0037283D02*
X0083740Y0030197D01*
X0088071Y0030197D02*
X0088071Y0037283D01*
X0092402Y0037283D02*
X0092402Y0030197D01*
X0096732Y0030197D02*
X0096732Y0037283D01*
X0101063Y0037283D02*
X0101063Y0030197D01*
X0105394Y0030197D02*
X0105394Y0037283D01*
X0109724Y0037283D02*
X0109724Y0030197D01*
X0114055Y0030197D02*
X0114055Y0037283D01*
X0118386Y0037283D02*
X0118386Y0030197D01*
X0122717Y0030197D02*
X0122717Y0037283D01*
X0127047Y0037283D02*
X0127047Y0030197D01*
X0131378Y0030197D02*
X0131378Y0037283D01*
X0135709Y0037283D02*
X0135709Y0030197D01*
X0140827Y0046732D02*
X0147913Y0046732D01*
X0147913Y0051063D02*
X0140827Y0051063D01*
X0140827Y0055394D02*
X0147913Y0055394D01*
X0147913Y0059724D02*
X0140827Y0059724D01*
X0140827Y0064055D02*
X0147913Y0064055D01*
X0147913Y0068386D02*
X0140827Y0068386D01*
X0140827Y0072717D02*
X0147913Y0072717D01*
X0147913Y0077047D02*
X0140827Y0077047D01*
X0140827Y0081378D02*
X0147913Y0081378D01*
D35*
X0164843Y0064843D03*
X0183740Y0064843D03*
X0183740Y0101063D03*
X0164843Y0101063D03*
D36*
X0130984Y0111693D03*
X0130984Y0126654D03*
D37*
X0122913Y0116417D03*
X0115433Y0116417D03*
X0119173Y0107756D03*
X0095354Y0120354D03*
X0087874Y0120354D03*
X0080394Y0117992D03*
X0072913Y0117992D03*
X0076654Y0126654D03*
X0091614Y0129016D03*
X0156378Y0033740D03*
X0163858Y0033740D03*
X0169764Y0033740D03*
X0177244Y0033740D03*
X0173504Y0025079D03*
X0160118Y0025079D03*
D38*
X0157756Y0083425D03*
X0157756Y0138543D03*
D39*
X0155199Y0121538D02*
X0149289Y0121538D01*
X0155199Y0121538D02*
X0155199Y0118384D01*
X0149289Y0118384D01*
X0149289Y0121538D01*
X0149289Y0119172D02*
X0155199Y0119172D01*
X0155199Y0119960D02*
X0149289Y0119960D01*
X0149289Y0120748D02*
X0155199Y0120748D01*
X0155199Y0121536D02*
X0149289Y0121536D01*
D40*
X0140433Y0124685D03*
X0140433Y0113661D03*
X0049882Y0274291D03*
X0049882Y0285315D03*
X0038858Y0285315D03*
X0038858Y0274291D03*
D41*
X0099488Y0267205D03*
X0110512Y0267205D03*
X0177441Y0119961D03*
X0188465Y0119961D03*
D42*
X0152244Y0110512D03*
X0152244Y0101063D03*
D43*
X0140709Y0020236D03*
X0135709Y0015236D03*
X0140709Y0010236D03*
X0130709Y0010236D03*
X0130709Y0020236D03*
X0047008Y0020236D03*
X0042008Y0015236D03*
X0047008Y0010236D03*
X0037008Y0010236D03*
X0037008Y0020236D03*
D44*
X0049156Y0098639D02*
X0049156Y0106637D01*
X0049156Y0098639D02*
X0041158Y0098639D01*
X0041158Y0106637D01*
X0049156Y0106637D01*
X0049156Y0102065D02*
X0041158Y0102065D01*
X0041158Y0105491D02*
X0049156Y0105491D01*
D45*
X0051691Y0105159D02*
X0055553Y0105159D01*
X0055553Y0104053D01*
X0051691Y0104053D01*
X0051691Y0105159D01*
X0051691Y0104526D02*
X0055553Y0104526D01*
X0055553Y0104999D02*
X0051691Y0104999D01*
X0051691Y0107128D02*
X0055553Y0107128D01*
X0055553Y0106022D01*
X0051691Y0106022D01*
X0051691Y0107128D01*
X0051691Y0106495D02*
X0055553Y0106495D01*
X0055553Y0106968D02*
X0051691Y0106968D01*
X0051691Y0103191D02*
X0055553Y0103191D01*
X0055553Y0102085D01*
X0051691Y0102085D01*
X0051691Y0103191D01*
X0051691Y0102558D02*
X0055553Y0102558D01*
X0055553Y0103031D02*
X0051691Y0103031D01*
X0051691Y0101222D02*
X0055553Y0101222D01*
X0055553Y0100116D01*
X0051691Y0100116D01*
X0051691Y0101222D01*
X0051691Y0100589D02*
X0055553Y0100589D01*
X0055553Y0101062D02*
X0051691Y0101062D01*
X0051691Y0099254D02*
X0055553Y0099254D01*
X0055553Y0098148D01*
X0051691Y0098148D01*
X0051691Y0099254D01*
X0051691Y0098621D02*
X0055553Y0098621D01*
X0055553Y0099094D02*
X0051691Y0099094D01*
X0049647Y0096104D02*
X0049647Y0092242D01*
X0048541Y0092242D01*
X0048541Y0096104D01*
X0049647Y0096104D01*
X0049647Y0092715D02*
X0048541Y0092715D01*
X0048541Y0093188D02*
X0049647Y0093188D01*
X0049647Y0093661D02*
X0048541Y0093661D01*
X0048541Y0094134D02*
X0049647Y0094134D01*
X0049647Y0094607D02*
X0048541Y0094607D01*
X0048541Y0095080D02*
X0049647Y0095080D01*
X0049647Y0095553D02*
X0048541Y0095553D01*
X0048541Y0096026D02*
X0049647Y0096026D01*
X0047679Y0096104D02*
X0047679Y0092242D01*
X0046573Y0092242D01*
X0046573Y0096104D01*
X0047679Y0096104D01*
X0047679Y0092715D02*
X0046573Y0092715D01*
X0046573Y0093188D02*
X0047679Y0093188D01*
X0047679Y0093661D02*
X0046573Y0093661D01*
X0046573Y0094134D02*
X0047679Y0094134D01*
X0047679Y0094607D02*
X0046573Y0094607D01*
X0046573Y0095080D02*
X0047679Y0095080D01*
X0047679Y0095553D02*
X0046573Y0095553D01*
X0046573Y0096026D02*
X0047679Y0096026D01*
X0045710Y0096104D02*
X0045710Y0092242D01*
X0044604Y0092242D01*
X0044604Y0096104D01*
X0045710Y0096104D01*
X0045710Y0092715D02*
X0044604Y0092715D01*
X0044604Y0093188D02*
X0045710Y0093188D01*
X0045710Y0093661D02*
X0044604Y0093661D01*
X0044604Y0094134D02*
X0045710Y0094134D01*
X0045710Y0094607D02*
X0044604Y0094607D01*
X0044604Y0095080D02*
X0045710Y0095080D01*
X0045710Y0095553D02*
X0044604Y0095553D01*
X0044604Y0096026D02*
X0045710Y0096026D01*
X0043742Y0096104D02*
X0043742Y0092242D01*
X0042636Y0092242D01*
X0042636Y0096104D01*
X0043742Y0096104D01*
X0043742Y0092715D02*
X0042636Y0092715D01*
X0042636Y0093188D02*
X0043742Y0093188D01*
X0043742Y0093661D02*
X0042636Y0093661D01*
X0042636Y0094134D02*
X0043742Y0094134D01*
X0043742Y0094607D02*
X0042636Y0094607D01*
X0042636Y0095080D02*
X0043742Y0095080D01*
X0043742Y0095553D02*
X0042636Y0095553D01*
X0042636Y0096026D02*
X0043742Y0096026D01*
X0041773Y0096104D02*
X0041773Y0092242D01*
X0040667Y0092242D01*
X0040667Y0096104D01*
X0041773Y0096104D01*
X0041773Y0092715D02*
X0040667Y0092715D01*
X0040667Y0093188D02*
X0041773Y0093188D01*
X0041773Y0093661D02*
X0040667Y0093661D01*
X0040667Y0094134D02*
X0041773Y0094134D01*
X0041773Y0094607D02*
X0040667Y0094607D01*
X0040667Y0095080D02*
X0041773Y0095080D01*
X0041773Y0095553D02*
X0040667Y0095553D01*
X0040667Y0096026D02*
X0041773Y0096026D01*
X0038624Y0098148D02*
X0034762Y0098148D01*
X0034762Y0099254D01*
X0038624Y0099254D01*
X0038624Y0098148D01*
X0038624Y0098621D02*
X0034762Y0098621D01*
X0034762Y0099094D02*
X0038624Y0099094D01*
X0038624Y0100116D02*
X0034762Y0100116D01*
X0034762Y0101222D01*
X0038624Y0101222D01*
X0038624Y0100116D01*
X0038624Y0100589D02*
X0034762Y0100589D01*
X0034762Y0101062D02*
X0038624Y0101062D01*
X0038624Y0102085D02*
X0034762Y0102085D01*
X0034762Y0103191D01*
X0038624Y0103191D01*
X0038624Y0102085D01*
X0038624Y0102558D02*
X0034762Y0102558D01*
X0034762Y0103031D02*
X0038624Y0103031D01*
X0038624Y0104053D02*
X0034762Y0104053D01*
X0034762Y0105159D01*
X0038624Y0105159D01*
X0038624Y0104053D01*
X0038624Y0104526D02*
X0034762Y0104526D01*
X0034762Y0104999D02*
X0038624Y0104999D01*
X0038624Y0106022D02*
X0034762Y0106022D01*
X0034762Y0107128D01*
X0038624Y0107128D01*
X0038624Y0106022D01*
X0038624Y0106495D02*
X0034762Y0106495D01*
X0034762Y0106968D02*
X0038624Y0106968D01*
X0040667Y0109171D02*
X0040667Y0113033D01*
X0041773Y0113033D01*
X0041773Y0109171D01*
X0040667Y0109171D01*
X0040667Y0109644D02*
X0041773Y0109644D01*
X0041773Y0110117D02*
X0040667Y0110117D01*
X0040667Y0110590D02*
X0041773Y0110590D01*
X0041773Y0111063D02*
X0040667Y0111063D01*
X0040667Y0111536D02*
X0041773Y0111536D01*
X0041773Y0112009D02*
X0040667Y0112009D01*
X0040667Y0112482D02*
X0041773Y0112482D01*
X0041773Y0112955D02*
X0040667Y0112955D01*
X0042636Y0113033D02*
X0042636Y0109171D01*
X0042636Y0113033D02*
X0043742Y0113033D01*
X0043742Y0109171D01*
X0042636Y0109171D01*
X0042636Y0109644D02*
X0043742Y0109644D01*
X0043742Y0110117D02*
X0042636Y0110117D01*
X0042636Y0110590D02*
X0043742Y0110590D01*
X0043742Y0111063D02*
X0042636Y0111063D01*
X0042636Y0111536D02*
X0043742Y0111536D01*
X0043742Y0112009D02*
X0042636Y0112009D01*
X0042636Y0112482D02*
X0043742Y0112482D01*
X0043742Y0112955D02*
X0042636Y0112955D01*
X0044604Y0113033D02*
X0044604Y0109171D01*
X0044604Y0113033D02*
X0045710Y0113033D01*
X0045710Y0109171D01*
X0044604Y0109171D01*
X0044604Y0109644D02*
X0045710Y0109644D01*
X0045710Y0110117D02*
X0044604Y0110117D01*
X0044604Y0110590D02*
X0045710Y0110590D01*
X0045710Y0111063D02*
X0044604Y0111063D01*
X0044604Y0111536D02*
X0045710Y0111536D01*
X0045710Y0112009D02*
X0044604Y0112009D01*
X0044604Y0112482D02*
X0045710Y0112482D01*
X0045710Y0112955D02*
X0044604Y0112955D01*
X0046573Y0113033D02*
X0046573Y0109171D01*
X0046573Y0113033D02*
X0047679Y0113033D01*
X0047679Y0109171D01*
X0046573Y0109171D01*
X0046573Y0109644D02*
X0047679Y0109644D01*
X0047679Y0110117D02*
X0046573Y0110117D01*
X0046573Y0110590D02*
X0047679Y0110590D01*
X0047679Y0111063D02*
X0046573Y0111063D01*
X0046573Y0111536D02*
X0047679Y0111536D01*
X0047679Y0112009D02*
X0046573Y0112009D01*
X0046573Y0112482D02*
X0047679Y0112482D01*
X0047679Y0112955D02*
X0046573Y0112955D01*
X0048541Y0113033D02*
X0048541Y0109171D01*
X0048541Y0113033D02*
X0049647Y0113033D01*
X0049647Y0109171D01*
X0048541Y0109171D01*
X0048541Y0109644D02*
X0049647Y0109644D01*
X0049647Y0110117D02*
X0048541Y0110117D01*
X0048541Y0110590D02*
X0049647Y0110590D01*
X0049647Y0111063D02*
X0048541Y0111063D01*
X0048541Y0111536D02*
X0049647Y0111536D01*
X0049647Y0112009D02*
X0048541Y0112009D01*
X0048541Y0112482D02*
X0049647Y0112482D01*
X0049647Y0112955D02*
X0048541Y0112955D01*
D46*
X0111299Y0163504D03*
X0111299Y0168504D03*
X0111299Y0173504D03*
X0111299Y0178504D03*
X0111299Y0183504D03*
X0127047Y0183504D03*
X0127047Y0173504D03*
X0127047Y0168504D03*
X0127047Y0163504D03*
D47*
X0108787Y0213622D02*
X0102787Y0213622D01*
X0102787Y0223622D02*
X0108787Y0223622D01*
X0108787Y0233622D02*
X0102787Y0233622D01*
X0102787Y0243622D02*
X0108787Y0243622D01*
D48*
X0080889Y0294367D02*
X0072419Y0294367D01*
X0072419Y0299885D01*
X0080889Y0299885D01*
X0080889Y0294367D01*
X0080889Y0295745D02*
X0072419Y0295745D01*
X0072419Y0297123D02*
X0080889Y0297123D01*
X0080889Y0298501D02*
X0072419Y0298501D01*
X0072419Y0299879D02*
X0080889Y0299879D01*
D49*
X0046535Y0306181D03*
X0032756Y0306181D03*
D50*
X0023898Y0284528D03*
X0023898Y0267205D03*
D51*
X0107362Y0276260D03*
X0107362Y0295945D03*
D52*
X0180140Y0191629D02*
X0184734Y0187036D01*
X0163855Y0166157D02*
X0159261Y0170750D01*
D53*
X0140558Y0282389D02*
X0132434Y0282389D01*
X0140558Y0282389D02*
X0140558Y0277217D01*
X0132434Y0277217D01*
X0132434Y0282389D01*
X0132434Y0278940D02*
X0140558Y0278940D01*
X0140558Y0280663D02*
X0132434Y0280663D01*
X0132434Y0282386D02*
X0140558Y0282386D01*
D54*
X0140433Y0284626D02*
X0140433Y0287578D01*
X0138465Y0287578D02*
X0138465Y0284626D01*
X0136496Y0284626D02*
X0136496Y0287578D01*
X0134528Y0287578D02*
X0134528Y0284626D01*
X0132559Y0284626D02*
X0132559Y0287578D01*
X0132559Y0274980D02*
X0132559Y0272028D01*
X0134528Y0272028D02*
X0134528Y0274980D01*
X0136496Y0274980D02*
X0136496Y0272028D01*
X0138465Y0272028D02*
X0138465Y0274980D01*
X0140433Y0274980D02*
X0140433Y0272028D01*
M02*
