%
M48
M72
T01C0.0118
T02C0.0320
T03C0.0394
T04C0.0400
T05C0.0433
T06C0.0551
T07C0.0630
T08C0.0866
%
T01
X894Y2469
X2390Y3020
X2941Y2469
X2390Y3886
X2783Y4358
X3650Y4358
X3650Y5697
X3020Y6169
X3020Y6957
X3020Y7744
X3807Y9083
X4201Y9949
X4516Y10264
X4831Y10579
X4831Y9949
X4201Y10579
X3413Y11051
X3492Y11366
X3650Y11681
X3728Y12075
X3965Y12311
X4201Y12547
X4122Y12862
X4280Y13492
X4831Y13256
X5539Y13728
X5461Y12626
X6484Y14437
X6406Y14909
X5776Y14909
X4988Y14831
X4673Y14988
X4673Y14594
X4752Y16169
X4752Y16878
X4752Y17587
X5461Y17587
X5461Y16878
X5461Y16169
X6169Y16169
X6169Y16878
X6169Y17587
X6957Y18531
X7114Y18846
X7193Y19398
X7193Y19791
X7114Y20106
X5854Y19791
X5854Y19398
X6091Y19161
X5618Y20264
X5697Y20657
X5539Y21130
X5224Y21209
X4752Y20972
X3965Y21602
X3335Y22075
X2862Y21445
X3965Y19398
X3807Y18846
X4043Y18531
X3886Y18217
X3650Y17980
X4516Y18846
X4437Y19240
X2705Y18059
X2075Y17114
X1524Y16799
X894Y16248
X1524Y15933
X1524Y15224
X1524Y14516
X894Y14280
X894Y12311
X894Y10343
X1996Y9713
X2626Y10500
X3177Y10343
X2626Y11445
X2626Y12469
X2626Y13335
X2862Y14437
X3256Y15539
X3256Y16406
X3335Y16799
X1524Y19083
X894Y18217
X894Y20185
X894Y22154
X894Y24122
X2232Y24358
X2547Y23650
X3886Y24437
X4201Y24594
X4437Y24831
X4043Y24988
X3177Y26248
X2626Y26484
X2626Y26957
X2154Y26957
X2154Y26484
X894Y26091
X894Y28059
X894Y30028
X2469Y31602
X3177Y29083
X3492Y26799
X4122Y26799
X4673Y26799
X5224Y26799
X5854Y27587
X6484Y27587
X6799Y26878
X7902Y27587
X8531Y27587
X9004Y27823
X9398Y27508
X9791Y26957
X9791Y26484
X10343Y26720
X8925Y25618
X9634Y24201
X8531Y23020
X7902Y23020
X6484Y23020
X6327Y22469
X6012Y22469
X5854Y23020
X6642Y22469
X6327Y22075
X6957Y21917
X6957Y21524
X8217Y21602
X8531Y20657
X9634Y19870
X9161Y18138
X9949Y17665
X9791Y16327
X8846Y14988
X8531Y14437
X8217Y14673
X7902Y14516
X7508Y14437
X7587Y13807
X6878Y13807
X6878Y12390
X8374Y12390
X8531Y11839
X9398Y11209
X9398Y10185
X10028Y10264
X11445Y11051
X11524Y10185
X12390Y10185
X13413Y8453
X13965Y9083
X14752Y8610
X15146Y6799
X15146Y6327
X15146Y5146
X15146Y4437
X14516Y4122
X13650Y5461
X13098Y5933
X12941Y6248
X13650Y6327
X13650Y6878
X11287Y4358
X10264Y5539
X9870Y6799
X9319Y7350
X8925Y7823
X8768Y8138
X8453Y8295
X8768Y7508
X8846Y6012
X8217Y4516
X7902Y3571
X7980Y2311
X8374Y894
X5382Y3098
X5067Y2547
X5224Y1445
X5382Y4122
X5382Y5224
X6091Y5224
X6169Y6091
X6169Y6957
X6169Y7508
X6169Y8138
X5303Y9083
X7035Y10028
X7665Y9870
X7587Y9161
X7350Y7272
X10815Y12783
X10106Y13571
X8768Y13571
X8768Y14043
X7665Y15303
X7823Y15618
X8138Y16327
X8217Y16799
X8059Y17114
X7587Y16799
X8374Y17665
X7823Y18138
X7980Y19004
X9555Y22390
X11130Y22862
X11209Y21839
X12311Y22311
X12311Y22862
X13177Y22469
X13650Y21917
X14043Y20264
X14673Y20264
X15697Y20421
X15697Y20028
X16327Y20972
X16720Y21366
X16327Y21760
X17114Y21760
X17114Y20972
X18138Y20972
X18610Y21130
X18374Y21839
X18059Y22547
X17744Y23020
X18374Y23020
X18453Y23571
X17665Y24594
X17665Y25539
X17429Y26720
X16327Y27587
X15697Y27587
X15854Y28689
X17035Y28531
X16957Y29240
X17350Y30185
X17823Y30185
X17823Y30736
X17823Y31209
X18217Y31602
X17823Y31681
X17350Y31681
X17350Y31209
X17350Y30736
X16248Y31602
X14673Y31681
X14201Y31681
X14201Y31209
X14201Y30736
X14673Y30736
X14673Y31209
X14673Y30185
X14201Y30185
X13650Y29083
X13965Y27980
X13335Y27980
X12783Y27980
X12154Y27429
X12154Y26563
X12783Y26720
X13020Y26484
X13256Y26720
X13807Y26012
X14043Y26248
X14280Y26484
X14594Y26878
X15224Y26012
X15146Y25697
X14831Y25539
X14594Y24280
X15697Y23020
X15697Y22390
X16327Y23020
X16484Y26091
X17744Y27587
X18374Y27587
X18531Y28610
X19791Y28059
X19791Y26091
X19791Y24122
X19791Y22154
X19791Y20185
X19791Y18217
X19791Y16248
X19791Y14280
X19791Y12311
X18768Y10736
X18217Y10736
X18217Y9476
X18689Y8925
X19791Y8374
X18689Y7665
X18689Y7035
X18059Y7035
X18059Y5854
X17350Y4988
X16720Y4831
X16406Y4673
X16957Y3886
X16563Y2626
X17508Y1051
X18217Y894
X17902Y2705
X18610Y3807
X19791Y4437
X18689Y5854
X19791Y6406
X19791Y2547
X14673Y2311
X12311Y894
X19791Y10343
X14988Y13098
X14673Y12783
X15067Y11996
X15382Y11996
X14280Y11366
X13807Y11366
X14437Y10657
X13098Y11917
X12075Y13650
X11366Y14280
X11839Y15776
X13413Y14752
X14280Y14752
X14437Y15697
X13571Y16878
X12705Y17823
X13571Y18846
X13256Y19634
X13020Y19949
X13256Y20185
X11839Y20185
X14673Y18453
X14831Y17823
X16012Y18217
X12390Y24201
X12469Y24752
X12783Y24752
X13098Y24752
X11524Y24752
X11524Y28531
X11996Y29161
X11996Y29949
X12390Y31524
X10657Y28531
X9870Y28531
X7980Y29713
X7350Y29713
X6091Y28768
X5776Y28295
X5382Y29398
X5776Y29634
X5776Y30343
X5776Y31051
X4437Y31602
X8374Y31602
X7823Y26327
X7823Y25539
X7823Y25067
X7508Y24909
X7823Y24594
X7980Y24043
X7114Y23807
X7035Y24122
X6720Y24201
X6799Y25146
X5382Y24909
X5382Y24516
X4831Y23571
X4831Y23256
X4831Y22941
X5067Y22154
X894Y8374
X894Y6406
X894Y4437
X2469Y894
X19791Y30028
T02
X1969Y20657
X2969Y20657
T03
X3701Y1024
X4201Y1524
X4701Y2024
X4701Y1024
X3701Y2024
X13071Y2024
X13571Y1524
X14071Y2024
X14071Y1024
X13071Y1024
T04
X10579Y21362
X10579Y22362
X10579Y23362
X10579Y24362
T05
X16156Y16845
X18244Y18933
X4654Y30618
X3276Y30618
T06
X15776Y8343
X15776Y13854
T07
X17035Y23183
X17035Y27423
X7193Y27423
X7193Y23183
T08
X1484Y1484
X9358Y1484
X11327Y1484
X19201Y31012
X11327Y31012
X9358Y31012
X1484Y31012
X19201Y1484
M30
